<svg xmlns="http://www.w3.org/2000/svg" xmlns:xlink="http://www.w3.org/1999/xlink" width="100" zoomAndPan="magnify" viewBox="0 0 75 74.999997" height="100" preserveAspectRatio="xMidYMid meet" version="1.0"><defs><g/><clipPath id="id1"><path d="M 0 10 L 8.25 10 L 8.25 65 L 0 65 Z M 0 10 " clip-rule="nonzero"/></clipPath><clipPath id="id2"><path d="M 0.855469 61.765625 C 0.886719 62.058594 0.816406 62.671875 0.796875 62.980469 C 0.703125 62.835938 0.832031 62.101562 0.855469 61.765625 Z M 1.402344 64.433594 C 1.351562 64.0625 1.472656 63.886719 1.375 63.617188 C 1.394531 63.863281 1.265625 64.398438 1.402344 64.433594 Z M 0.128906 62.410156 C 0.117188 62.757812 0 63.25 0.0742188 63.558594 C 0.105469 63.1875 0.210938 62.621094 0.128906 62.410156 Z M 3.164062 62.617188 C 3.234375 62.824219 3.09375 63.105469 3.203125 63.160156 C 3.1875 62.988281 3.292969 62.578125 3.164062 62.617188 Z M 1.332031 63.140625 C 1.34375 62.421875 1.449219 61.523438 1.398438 60.910156 L 1.347656 62.058594 C 1.355469 62.398438 1.269531 62.914062 1.332031 63.140625 Z M 1.503906 59.898438 C 1.5 59.988281 1.445312 59.957031 1.433594 60.03125 C 1.605469 60.003906 1.320312 60.265625 1.453125 60.371094 C 1.445312 60.1875 1.597656 60.03125 1.503906 59.898438 Z M 2.601562 63.808594 C 2.570312 63.808594 2.566406 63.753906 2.542969 63.738281 C 2.503906 63.863281 2.503906 64.527344 2.574219 64.417969 C 2.578125 64.332031 2.539062 64.324219 2.550781 64.214844 C 2.671875 64.128906 2.648438 62.796875 2.601562 63.808594 Z M 0.5 57.285156 C 0.539062 57.277344 0.578125 57.265625 0.570312 57.152344 L 0.476562 57.148438 C 0.464844 57.316406 0.457031 57.476562 0.523438 57.488281 C 0.527344 57.394531 0.515625 57.339844 0.5 57.285156 Z M 3.246094 64.996094 C 3.238281 64.789062 3.316406 64.414062 3.246094 64.316406 C 3.195312 64.558594 3.183594 64.773438 3.246094 64.996094 Z M 4.796875 62.347656 C 4.796875 62.722656 4.703125 63.601562 4.769531 63.640625 C 4.734375 63.15625 4.933594 62.59375 4.796875 62.347656 Z M 1.703125 62.617188 L 1.726562 62.144531 C 1.59375 62.121094 1.675781 62.558594 1.703125 62.617188 Z M 0.691406 63.992188 C 0.699219 64.222656 0.621094 64.621094 0.6875 64.738281 C 0.679688 64.507812 0.757812 64.113281 0.691406 63.992188 Z M 1.953125 63.441406 C 1.980469 63.699219 1.976562 64.167969 1.984375 64.121094 C 2.101562 63.523438 2.179688 62.585938 2.109375 62.09375 C 2.101562 62.199219 2.101562 62.328125 2.035156 62.292969 C 2.027344 62.84375 2.089844 63.082031 2.011719 63.582031 C 2.011719 63.496094 2.007812 63.417969 1.953125 63.441406 Z M 1.339844 56.910156 C 1.367188 57.222656 1.21875 57.507812 1.308594 57.722656 C 1.367188 57.484375 1.367188 56.722656 1.339844 56.910156 Z M 0.960938 54.257812 C 0.871094 54.015625 1.046875 53.558594 0.863281 53.441406 C 0.863281 54.375 0.640625 55.746094 0.683594 56.617188 C 0.820312 55.824219 0.855469 54.863281 0.9375 54.121094 C 0.941406 54.171875 0.933594 54.253906 0.960938 54.257812 Z M 1.128906 21.941406 C 1.148438 22.550781 1.085938 23.335938 1.160156 23.835938 C 1.199219 23.035156 1.203125 22.484375 1.128906 21.941406 Z M 1.050781 28.292969 C 1.023438 27.5625 0.984375 26.832031 0.902344 26.199219 C 0.929688 26.945312 0.957031 27.699219 1.050781 28.292969 Z M 0.808594 20.253906 C 0.953125 19.519531 0.796875 18.722656 1.082031 18.359375 C 0.996094 16.8125 0.96875 15.839844 0.582031 14.851562 C 0.757812 15.832031 0.902344 17.519531 0.671875 18.566406 C 0.785156 18.671875 0.691406 18.335938 0.765625 18.363281 C 0.796875 19.070312 0.765625 19.6875 0.808594 20.253906 Z M 1.769531 10.914062 C 1.699219 11.035156 1.648438 11.542969 1.714844 11.726562 C 1.777344 11.503906 1.839844 11.042969 1.769531 10.914062 Z M 1.023438 14.980469 C 0.929688 14.90625 0.835938 14.839844 0.765625 14.710938 C 0.746094 14.917969 0.800781 14.957031 0.800781 15.117188 C 0.902344 15.125 0.980469 15.085938 1.023438 14.980469 Z M 1.1875 26.808594 C 1.175781 27.023438 1.058594 27.34375 1.152344 27.550781 C 1.269531 27.511719 1.289062 26.925781 1.1875 26.808594 Z M 0.964844 53.242188 C 0.921875 52.472656 1.070312 51.238281 1.019531 50.605469 C 0.964844 51.292969 0.839844 52.6875 0.898438 53.375 C 0.894531 53.179688 0.914062 53.144531 0.964844 53.242188 Z M 0.710938 52.289062 C 0.613281 52.496094 0.648438 52.992188 0.679688 53.300781 C 0.652344 52.917969 0.769531 52.5 0.710938 52.289062 Z M 1.085938 49.527344 C 1.035156 49.542969 1.078125 49.636719 1.113281 49.660156 C 1.121094 49.390625 1.128906 49.121094 1.136719 48.851562 C 1.078125 48.703125 1.101562 49.34375 1.085938 49.527344 Z M 5.957031 11.125 C 5.921875 11.324219 5.925781 11.609375 5.96875 11.804688 C 6.023438 11.789062 6.039062 11.6875 6.027344 11.53125 C 6.128906 11.582031 6 12.035156 6.066406 12.007812 C 6.035156 12.058594 5.9375 12.011719 5.972656 12.347656 C 6.09375 12.195312 6.347656 12.523438 6.394531 12.957031 C 6.441406 12.898438 6.4375 12.738281 6.453125 12.613281 C 6.539062 12.566406 6.515625 12.753906 6.550781 12.816406 C 6.722656 12.539062 6.472656 11.789062 6.660156 11.589844 C 6.777344 11.699219 6.699219 12.800781 6.867188 12.742188 C 6.941406 13.144531 6.789062 13.8125 6.949219 14.308594 C 6.992188 13.402344 6.953125 12.332031 7.105469 11.652344 C 7.164062 11.703125 7.109375 11.777344 7.109375 11.855469 C 7.113281 11.933594 7.164062 11.910156 7.203125 11.921875 C 7.195312 12.445312 7.21875 12.683594 7.152344 13.011719 C 7.285156 13.375 7.296875 14 7.300781 14.644531 C 7.222656 14.433594 7.195312 13.664062 7.1875 13.214844 C 7.105469 14.15625 7.257812 14.8125 7.214844 15.800781 C 7.242188 15.796875 7.238281 15.71875 7.242188 15.664062 C 7.292969 15.765625 7.292969 15.96875 7.40625 15.9375 C 7.730469 18.144531 7.605469 21.667969 7.660156 23.902344 C 7.628906 23.902344 7.636719 23.820312 7.628906 23.765625 C 7.601562 24.25 7.699219 24.960938 7.625 25.605469 C 7.589844 25.601562 7.574219 25.558594 7.566406 25.496094 C 7.59375 26.535156 7.699219 27.449219 7.582031 28.597656 C 7.488281 29.542969 7.5625 28.324219 7.550781 28.328125 C 7.386719 28.433594 7.660156 29.582031 7.574219 29.757812 C 7.53125 29.742188 7.566406 29.554688 7.515625 29.550781 C 7.449219 29.722656 7.542969 29.878906 7.574219 30.164062 C 7.539062 30.148438 7.550781 30.03125 7.511719 30.03125 C 7.484375 31.289062 7.496094 32.582031 7.523438 33.890625 C 7.546875 35.199219 7.566406 36.527344 7.542969 37.863281 C 7.625 37.984375 7.609375 37.5625 7.640625 37.796875 C 7.699219 37.6875 7.621094 37.582031 7.707031 37.457031 C 7.769531 37.484375 7.707031 37.769531 7.832031 37.664062 C 7.769531 37.851562 7.617188 37.839844 7.539062 37.996094 C 7.34375 39.351562 7.648438 40.460938 7.59375 41.949219 C 7.65625 41.902344 7.679688 41.769531 7.695312 41.613281 C 7.824219 41.640625 7.394531 42.476562 7.671875 42.632812 C 7.507812 43.4375 7.546875 44.046875 7.585938 45.015625 C 7.53125 45.007812 7.515625 45.097656 7.457031 45.082031 C 7.472656 45.289062 7.59375 45.277344 7.539062 45.628906 C 7.480469 45.617188 7.527344 45.398438 7.484375 45.355469 C 7.371094 45.902344 7.496094 46.535156 7.46875 47.125 C 7.40625 46.988281 7.40625 47.152344 7.367188 47.261719 C 7.414062 47.296875 7.417969 47.304688 7.457031 47.46875 C 7.433594 47.582031 7.382812 47.507812 7.398438 47.398438 C 7.320312 48.3125 7.335938 49.855469 7.347656 51.214844 C 7.417969 51.207031 7.371094 50.925781 7.390625 50.804688 C 7.421875 50.84375 7.433594 50.996094 7.453125 50.875 C 7.382812 53.054688 7.253906 55.660156 7.09375 57.472656 C 6.992188 57.296875 7.027344 56.847656 7.039062 56.449219 C 7.035156 56.273438 6.980469 56.539062 6.910156 56.445312 C 6.949219 56.195312 6.867188 56.078125 6.929688 55.96875 C 7.015625 55.921875 6.894531 56.289062 6.980469 56.242188 C 7.058594 56.128906 6.917969 55.90625 6.9375 55.695312 C 6.785156 56.230469 6.808594 57.121094 6.675781 57.59375 C 6.679688 57.671875 6.730469 57.652344 6.769531 57.664062 C 6.625 58.132812 6.734375 59.144531 6.679688 59.84375 C 6.546875 58.722656 6.707031 57.078125 6.671875 56.027344 C 6.484375 56.46875 6.605469 56.980469 6.5625 57.316406 C 6.550781 57.398438 6.464844 57.484375 6.457031 57.515625 C 6.441406 57.582031 6.519531 57.574219 6.519531 57.585938 C 6.507812 57.695312 6.429688 57.753906 6.414062 57.855469 C 6.359375 58.253906 6.511719 58.679688 6.386719 59.285156 C 6.425781 59.273438 6.421875 59.160156 6.429688 59.082031 C 6.507812 59.476562 6.34375 59.574219 6.390625 60.035156 C 6.324219 59.96875 6.355469 59.183594 6.378906 58.742188 C 6.214844 59.011719 6.292969 59.609375 6.261719 60.03125 C 6.273438 59.875 6.269531 60.519531 6.226562 60.097656 C 6.210938 59.914062 6.285156 58.957031 6.191406 58.664062 C 6.292969 58.648438 6.222656 58.101562 6.265625 57.578125 C 6.136719 57.933594 6.242188 57.023438 6.234375 56.757812 C 6.152344 57.039062 6.050781 57.125 6.050781 57.429688 C 5.980469 57.355469 6.054688 57.003906 6.042969 56.816406 C 5.96875 57.042969 5.953125 57.398438 5.941406 57.769531 C 5.890625 57.785156 5.890625 57.703125 5.851562 57.695312 C 5.890625 58.183594 5.765625 58.65625 5.835938 58.851562 C 5.699219 59.050781 5.617188 59.375 5.632812 59.933594 C 5.582031 60.105469 5.617188 59.597656 5.585938 59.523438 C 5.472656 59.882812 5.472656 60.195312 5.476562 60.609375 C 5.328125 60.25 5.5 59.671875 5.542969 59.046875 C 5.34375 59.234375 5.625 58.757812 5.46875 58.566406 C 5.492188 58.578125 5.496094 58.636719 5.527344 58.636719 C 5.582031 58.304688 5.429688 58.367188 5.457031 58.089844 C 5.410156 58.277344 5.414062 58.511719 5.429688 58.769531 C 5.378906 58.917969 5.390625 58.433594 5.351562 58.359375 C 5.269531 58.492188 5.304688 58.941406 5.320312 59.105469 C 5.222656 58.835938 5.234375 59.300781 5.203125 59.574219 C 5.152344 59.074219 5.261719 58.820312 5.1875 58.417969 C 5.140625 58.414062 5.125 58.820312 5.121094 58.484375 C 5.03125 58.988281 5.074219 59.542969 5.066406 59.84375 C 4.964844 59.625 5.003906 59.476562 5.003906 59.023438 C 4.855469 59.144531 5.035156 59.585938 4.878906 59.699219 C 4.816406 59.679688 4.882812 59.398438 4.832031 59.355469 C 4.710938 59.667969 4.742188 60.335938 4.707031 60.847656 C 4.511719 60.492188 4.65625 59.730469 4.582031 59.210938 C 4.523438 59.347656 4.5 59.949219 4.546875 60.089844 C 4.480469 60.328125 4.472656 59.957031 4.492188 59.816406 C 4.351562 60.207031 4.566406 60.214844 4.464844 60.496094 C 4.367188 60.457031 4.433594 60.101562 4.394531 59.949219 C 4.351562 59.964844 4.34375 60.152344 4.386719 60.15625 C 4.261719 60.1875 4.347656 59.273438 4.277344 58.996094 C 4.195312 59.007812 4.292969 59.554688 4.234375 59.195312 C 4.203125 59.457031 4.175781 59.425781 4.148438 59.738281 C 4.136719 59.234375 4.058594 59.28125 4.125 58.785156 C 4.078125 58.863281 4.082031 59.078125 3.960938 58.980469 C 3.945312 59.160156 4.082031 59.039062 4.042969 59.257812 C 4.011719 59.253906 3.980469 59.253906 3.949219 59.253906 C 3.917969 59.710938 3.949219 59.925781 3.90625 60.269531 C 3.839844 59.738281 3.824219 59.5625 3.890625 59.046875 C 3.734375 59.308594 3.730469 60.179688 3.804688 60.402344 C 3.734375 60.484375 3.761719 60.347656 3.761719 60.671875 C 3.714844 60.5 3.695312 60.53125 3.691406 60.804688 C 3.617188 60.691406 3.699219 60.332031 3.71875 60.195312 C 3.511719 60.144531 3.640625 60.589844 3.566406 60.730469 C 3.492188 60.414062 3.601562 60.046875 3.542969 59.78125 C 3.53125 59.875 3.496094 60.15625 3.484375 60.457031 C 3.453125 60.144531 3.320312 59.757812 3.402344 59.433594 C 3.257812 59.527344 3.414062 59.945312 3.308594 60.175781 C 3.195312 59.875 3.363281 59.421875 3.261719 59.019531 C 3.175781 59.074219 3.308594 59.320312 3.210938 59.425781 C 3.304688 59.414062 3.199219 60.046875 3.144531 60.238281 C 3.140625 59.429688 3.183594 59.015625 3.136719 58.132812 C 3.117188 58.613281 3.003906 58.964844 2.953125 59.550781 C 3.085938 59.261719 2.976562 59.742188 2.910156 59.820312 C 2.976562 59.882812 2.972656 60.070312 2.953125 60.296875 C 2.921875 60.292969 2.929688 60.210938 2.925781 60.160156 C 2.800781 60.9375 2.824219 61.851562 2.710938 62.933594 C 2.65625 61.496094 2.902344 60.078125 2.8125 59.136719 C 2.636719 60.636719 2.589844 61.484375 2.464844 63.464844 C 2.382812 62.636719 2.589844 61.476562 2.496094 60.617188 C 2.527344 60.515625 2.542969 60.636719 2.625 60.554688 C 2.570312 60.265625 2.710938 59.105469 2.707031 58.589844 C 2.667969 58.601562 2.675781 58.714844 2.667969 58.792969 C 2.566406 58.660156 2.660156 58.519531 2.65625 58.25 C 2.476562 58.382812 2.617188 58.929688 2.546875 59.398438 C 2.585938 59.390625 2.578125 59.277344 2.585938 59.195312 C 2.707031 59.304688 2.488281 59.589844 2.570312 59.601562 C 2.527344 59.800781 2.46875 59.511719 2.484375 59.394531 C 2.425781 59.453125 2.375 59.617188 2.355469 59.390625 C 2.28125 59.410156 2.277344 59.597656 2.21875 59.65625 C 2.234375 59.710938 2.246094 59.765625 2.242188 59.859375 C 2.234375 60.0625 2.226562 60.265625 2.21875 60.46875 C 2.148438 60.417969 2.21875 60.089844 2.207031 59.925781 C 2.082031 59.195312 2.140625 58.742188 2.035156 57.886719 C 2.175781 57.707031 1.996094 57.265625 2.039062 56.871094 C 2.027344 56.992188 1.8125 57.636719 2.003906 57.820312 C 1.976562 57.9375 1.945312 57.828125 1.910156 57.816406 C 1.929688 58.015625 1.941406 58.050781 1.863281 58.152344 C 1.871094 58.257812 1.925781 58.097656 1.925781 58.222656 C 1.875 58.351562 1.820312 58.460938 1.769531 58.894531 C 1.824219 58.921875 1.832031 58.84375 1.839844 58.761719 C 1.75 60.019531 1.695312 61.332031 1.570312 62.8125 C 1.480469 62.839844 1.609375 62.445312 1.519531 62.472656 C 1.4375 62.695312 1.476562 63.214844 1.441406 63.554688 C 1.550781 63.625 1.496094 63.289062 1.519531 63.152344 C 1.578125 62.980469 1.542969 63.710938 1.492188 63.757812 C 1.34375 63.550781 1.460938 62.832031 1.464844 62.335938 C 1.488281 62.371094 1.511719 62.410156 1.554688 62.40625 C 1.558594 62.339844 1.5625 62.269531 1.566406 62.203125 C 1.496094 62.199219 1.5 62.242188 1.414062 62.058594 C 1.390625 61.882812 1.636719 61.875 1.457031 61.792969 C 1.5 61.511719 1.558594 61.738281 1.601562 61.460938 C 1.449219 61.261719 1.742188 59.449219 1.621094 58.683594 C 1.71875 58.769531 1.652344 58.464844 1.753906 58.554688 C 1.671875 58.121094 1.703125 58.015625 1.757812 57.605469 C 1.757812 57.464844 1.671875 57.699219 1.636719 57.53125 C 1.515625 57.582031 1.703125 57.957031 1.558594 57.867188 C 1.5625 57.613281 1.507812 57.636719 1.507812 57.527344 C 1.542969 57.429688 1.59375 57.386719 1.671875 57.398438 C 1.695312 57.1875 1.644531 57.121094 1.589844 57.058594 C 1.671875 57.363281 1.53125 57.058594 1.546875 57.394531 C 1.511719 57.375 1.53125 57.257812 1.488281 57.253906 C 1.421875 57.417969 1.445312 57.792969 1.398438 57.996094 C 1.382812 57.394531 1.394531 56.453125 1.300781 56.367188 C 1.226562 56.335938 1.367188 56.015625 1.367188 56.304688 C 1.386719 56.199219 1.304688 55.753906 1.335938 55.421875 C 1.289062 55.503906 1.265625 55.621094 1.207031 55.484375 C 1.160156 55.777344 1.199219 55.707031 1.21875 55.957031 C 1.195312 55.921875 1.171875 55.886719 1.128906 55.886719 C 1.152344 56.109375 1.203125 56.03125 1.113281 56.226562 C 1.152344 54.644531 1.179688 52.398438 1.203125 50.8125 C 1.125 50.71875 1.289062 50.582031 1.28125 50.410156 C 1.277344 50.144531 1.167969 50.484375 1.191406 50.207031 C 1.371094 49.71875 1.316406 47.585938 1.328125 46.554688 C 1.285156 47.460938 1.230469 48.210938 1.191406 49.054688 C 1.101562 47.660156 1.261719 46.316406 1.074219 45.199219 C 1.125 45.289062 1.179688 45.371094 1.195312 45.539062 C 1.324219 43.789062 1.195312 42.566406 1.261719 41.210938 C 1.195312 41.21875 1.191406 41.378906 1.191406 41.546875 C 1.105469 41.71875 1.230469 40.917969 1.144531 40.871094 C 1.414062 41.027344 1.226562 38.785156 1.382812 38.238281 C 1.253906 38.53125 1.382812 37.964844 1.328125 37.761719 C 1.40625 37.941406 1.390625 37.671875 1.394531 37.492188 C 1.203125 37.988281 1.4375 36.144531 1.394531 35.328125 C 1.253906 36.933594 1.21875 37.742188 1.238281 39.25 C 1.125 39.234375 1.230469 38.871094 1.152344 38.570312 C 1.097656 38.632812 1.089844 38.808594 1.054688 38.90625 C 0.949219 38.535156 1.234375 38.421875 1.195312 37.964844 C 1.152344 38.007812 1.136719 38.105469 1.128906 38.234375 C 1.097656 38.1875 1.101562 38.078125 1.035156 38.097656 C 1.09375 36.863281 1.152344 35.609375 1.195312 34.324219 C 1.234375 33.042969 1.257812 31.730469 1.230469 30.394531 C 1.238281 30.339844 1.242188 30.289062 1.25 30.234375 C 1.195312 30.074219 1.253906 29.683594 1.234375 29.445312 C 1.300781 29.570312 1.253906 29.921875 1.257812 30.171875 C 1.339844 29.464844 1.320312 28.449219 1.34375 27.488281 C 1.421875 23.574219 1.195312 19.863281 1.097656 15.925781 C 1.136719 15.957031 1.164062 16.015625 1.164062 16.128906 C 1.253906 15.261719 1.046875 14.457031 0.980469 13.699219 C 1.089844 13.859375 1.09375 14.234375 1.148438 14.507812 C 1.179688 14.097656 1.109375 13.296875 1.09375 12.75 C 1.175781 13.15625 1.195312 13.683594 1.207031 14.238281 C 1.441406 13.824219 1.371094 12.96875 1.503906 12.542969 C 1.464844 12.65625 1.648438 12.605469 1.691406 12.40625 C 1.695312 12.390625 1.699219 12.375 1.699219 12.363281 C 1.703125 12.382812 1.710938 12.398438 1.722656 12.40625 C 1.695312 12.390625 1.878906 12.097656 1.878906 12.335938 C 1.921875 11.738281 1.996094 11.21875 2.082031 10.707031 C 2.113281 11.234375 1.816406 12.523438 2.203125 12.804688 C 2.410156 12.488281 2.601562 12.136719 2.566406 11.308594 C 2.621094 11.273438 2.695312 11.273438 2.722656 11.171875 C 2.773438 11.179688 2.691406 11.457031 2.726562 11.648438 C 2.75 11.714844 2.800781 11.714844 2.792969 11.847656 C 2.886719 11.800781 2.921875 11.625 2.980469 11.507812 C 3.03125 11.65625 2.785156 12.09375 3.050781 12.117188 C 3.140625 12.105469 3.105469 11.832031 3.109375 11.640625 C 3.179688 11.648438 3.179688 11.808594 3.175781 11.976562 C 3.324219 11.921875 3.390625 11.75 3.460938 11.976562 C 3.636719 11.617188 3.597656 11.539062 3.707031 11.15625 C 3.773438 11.257812 3.695312 11.617188 3.679688 11.769531 C 3.710938 11.835938 3.746094 11.902344 3.777344 11.96875 C 3.875 11.839844 3.738281 11.429688 3.800781 11.359375 C 3.847656 11.363281 3.890625 11.371094 3.894531 11.289062 C 3.960938 11.453125 3.8125 11.734375 3.839844 12.039062 C 3.882812 12.023438 3.894531 11.757812 3.902344 12.039062 C 3.964844 11.945312 3.914062 11.621094 3.960938 11.496094 C 3.992188 11.644531 4.027344 11.980469 4.03125 12.238281 C 4.117188 12.285156 4.09375 12.097656 4.125 12.035156 C 4.128906 11.886719 4.097656 11.820312 4.027344 11.832031 C 4.113281 11.589844 4.226562 11.539062 4.242188 11.289062 C 4.328125 11.167969 4.308594 11.585938 4.339844 11.351562 C 4.480469 11.550781 4.332031 12.539062 4.449219 12.777344 C 4.519531 12.421875 4.375 11.976562 4.5 11.554688 C 4.605469 11.773438 4.507812 12.273438 4.546875 12.84375 C 4.621094 12.597656 4.714844 12.359375 4.828125 12.367188 C 4.871094 12.386719 4.855469 12.535156 4.859375 12.636719 C 5.042969 12.527344 5.019531 12 5.003906 11.480469 C 5.050781 11.484375 5.09375 11.492188 5.097656 11.410156 C 5.132812 11.546875 5.117188 11.722656 5.140625 12.023438 C 5.207031 12.011719 5.148438 11.734375 5.164062 11.617188 C 5.234375 11.644531 5.183594 11.949219 5.203125 12.089844 L 5.109375 12.09375 C 5.109375 12.273438 5.113281 12.453125 5.117188 12.636719 C 5.207031 12.625 5.171875 12.351562 5.171875 12.160156 C 5.398438 12.246094 5.480469 11.855469 5.417969 11.546875 C 5.449219 11.472656 5.535156 11.523438 5.511719 11.339844 C 5.558594 11.433594 5.582031 11.554688 5.574219 11.269531 C 5.605469 11.273438 5.601562 11.351562 5.609375 11.40625 C 5.679688 11.375 5.605469 11.046875 5.667969 11 C 5.636719 11.445312 5.707031 11.992188 5.746094 12.425781 C 5.832031 12.273438 5.734375 11.941406 5.738281 11.746094 C 5.796875 11.75 5.761719 11.96875 5.835938 11.945312 C 5.996094 11.765625 5.8125 11.003906 5.886719 10.789062 C 5.910156 10.019531 5.902344 10.980469 5.957031 11.125 Z M 5.28125 57.605469 C 5.15625 57.621094 5.195312 58.289062 5.21875 58.421875 C 5.277344 58.535156 5.257812 57.828125 5.28125 57.605469 Z M 1.476562 56.714844 L 1.457031 57.1875 L 1.519531 57.191406 C 1.503906 57.035156 1.597656 56.664062 1.476562 56.714844 Z M 1.996094 56.324219 C 1.992188 56.503906 1.964844 56.722656 2.046875 56.734375 C 2.03125 56.59375 2.113281 56.265625 1.996094 56.324219 Z M 1.628906 56.042969 C 1.628906 56.207031 1.570312 56.816406 1.636719 56.652344 C 1.625 56.351562 1.734375 56.179688 1.628906 56.042969 Z M 2.066406 55.3125 C 1.914062 55.453125 2.066406 56.003906 2.097656 56.195312 C 2.140625 55.800781 2.015625 55.730469 2.066406 55.3125 Z M 7.425781 37.25 C 7.421875 37.386719 7.421875 37.523438 7.417969 37.660156 C 7.4375 37.660156 7.460938 37.660156 7.480469 37.660156 C 7.464844 37.519531 7.539062 37.1875 7.425781 37.25 Z M 1.332031 32.554688 C 1.316406 32.214844 1.367188 32.011719 1.371094 31.8125 C 1.40625 30.625 1.242188 32.59375 1.332031 32.554688 Z M 1.421875 29.921875 C 1.425781 29.839844 1.414062 29.726562 1.453125 29.71875 C 1.433594 28.832031 1.335938 29.261719 1.421875 29.921875 Z M 1.472656 26.605469 C 1.4375 26.851562 1.449219 27.441406 1.46875 27.417969 C 1.519531 27.359375 1.515625 26.851562 1.472656 26.605469 Z M 0.960938 47.15625 C 0.953125 47.25 0.90625 47.265625 0.894531 47.355469 C 0.980469 47.328125 0.917969 47.605469 0.980469 47.628906 C 0.96875 47.488281 1.035156 47.1875 0.960938 47.15625 Z M 1.046875 28.632812 C 1.066406 28.929688 1.058594 29.28125 1.105469 29.511719 C 1.109375 29.167969 1.117188 28.820312 1.046875 28.632812 Z M 1.703125 12.359375 C 1.746094 12.125 1.6875 12.273438 1.703125 12.359375 Z M 4.632812 11.484375 C 4.582031 11.554688 4.589844 12.320312 4.640625 12.164062 C 4.601562 11.902344 4.6875 11.566406 4.632812 11.484375 Z M 4.910156 11.003906 C 4.839844 11.199219 4.984375 11.542969 4.890625 11.753906 C 4.890625 11.714844 4.863281 11.675781 4.859375 11.753906 C 5.003906 12.046875 4.960938 11.113281 4.910156 11.003906 Z M 7.660156 15.664062 C 7.621094 15.339844 7.742188 14.710938 7.648438 14.710938 C 7.683594 15.050781 7.558594 15.40625 7.660156 15.664062 Z M 7.90625 19.339844 C 7.902344 18.503906 8.023438 17.570312 7.988281 16.890625 C 7.914062 17.5625 7.808594 18.527344 7.90625 19.339844 Z M 1.914062 58.492188 C 1.941406 58.730469 1.941406 59.019531 2.011719 59.171875 C 2.03125 58.84375 2.074219 58.261719 2.042969 58.429688 C 2.039062 58.707031 2 58.414062 1.914062 58.492188 Z M 7.722656 12.667969 C 7.714844 12.519531 7.746094 12.449219 7.816406 12.460938 C 7.792969 12.28125 7.796875 12.035156 7.746094 11.917969 C 7.765625 12.1875 7.617188 12.449219 7.722656 12.667969 Z M 3.941406 60.136719 C 4.074219 60.539062 3.804688 60.617188 3.78125 60.878906 C 3.90625 60.84375 4.148438 60.265625 3.941406 60.136719 Z M 2.59375 61.910156 C 2.582031 62.121094 2.511719 62.375 2.632812 62.453125 C 2.648438 62.21875 2.644531 62.019531 2.59375 61.910156 Z M 1.804688 61.808594 C 1.894531 61.183594 1.734375 61.070312 1.804688 61.808594 Z M 2.136719 61.484375 C 2.1875 60.667969 2.1875 60.609375 2.136719 59.992188 C 2.101562 60.691406 2.027344 61.042969 2.136719 61.484375 Z M 1.890625 59.777344 C 1.734375 59.921875 1.902344 60.492188 1.855469 60.660156 C 1.949219 60.414062 1.839844 60.132812 1.890625 59.777344 Z M 8.152344 42.441406 C 8.167969 42.214844 8.25 41.757812 8.171875 41.558594 C 8.113281 41.792969 8.046875 42.234375 8.152344 42.441406 Z M 4.09375 62.453125 C 4.121094 62.40625 4.085938 61.714844 4.0625 61.773438 C 4.078125 62.007812 4.015625 62.058594 3.980469 62.175781 C 4.039062 62.230469 3.996094 62.378906 4.074219 62.25 C 4.074219 62.328125 4.058594 62.441406 4.09375 62.453125 Z M 4.773438 59.96875 C 4.777344 60.851562 4.742188 61.320312 4.820312 61.804688 C 4.84375 61.074219 4.824219 60.390625 4.773438 59.96875 Z M 3.234375 62.484375 C 3.261719 62.242188 3.347656 61.753906 3.277344 61.535156 C 3.296875 61.894531 3.136719 62.277344 3.234375 62.484375 Z M 4.964844 62.832031 C 4.933594 62.550781 5.078125 62.3125 4.996094 62.15625 C 4.976562 62.296875 4.886719 62.9375 4.964844 62.832031 Z M 4.667969 61.664062 C 4.671875 61.253906 4.699219 61.0625 4.667969 60.914062 C 4.65625 61.042969 4.617188 60.875 4.601562 60.980469 C 4.65625 60.953125 4.640625 61.351562 4.589844 61.320312 C 4.589844 61.28125 4.566406 61.242188 4.558594 61.316406 C 4.640625 61.34375 4.601562 61.605469 4.667969 61.664062 Z M 3.261719 60.445312 C 3.207031 60.472656 3.1875 60.953125 3.238281 60.988281 C 3.226562 60.8125 3.410156 60.488281 3.261719 60.445312 Z M 3.398438 60.179688 C 3.363281 60.152344 3.324219 60.097656 3.367188 60.179688 C 3.386719 60.398438 3.3125 60.691406 3.3125 60.71875 C 3.257812 61.953125 3.414062 61 3.398438 60.179688 Z M 7.785156 21.726562 C 7.824219 21.847656 7.792969 22.121094 7.851562 22.203125 C 7.902344 22.085938 7.886719 21.726562 7.785156 21.726562 Z M 7.945312 24.789062 C 7.929688 24.628906 7.988281 24.296875 7.917969 24.246094 C 7.878906 24.4375 7.878906 24.660156 7.945312 24.789062 Z M 7.523438 50.675781 C 7.480469 50.507812 7.539062 49.960938 7.507812 50.128906 C 7.449219 50.277344 7.441406 50.726562 7.523438 50.675781 Z M 5.207031 61.6875 C 5.171875 61.519531 5.230469 61.046875 5.195312 61.207031 C 5.128906 61.316406 5.078125 61.675781 5.207031 61.6875 Z M 5.105469 60.320312 C 5.117188 60.574219 5.035156 60.996094 5.105469 61.140625 C 5.09375 60.886719 5.171875 60.460938 5.105469 60.320312 Z M 5.105469 60.320312 " clip-rule="nonzero"/></clipPath></defs><g clip-path="url(#id1)"><g clip-path="url(#id2)"><path fill="rgb(100%, 100%, 100%)" d="M 0 64.996094 L 8.25 64.996094 L 8.25 10.019531 L 0 10.019531 Z M 0 64.996094 " fill-opacity="1" fill-rule="nonzero"/></g></g><g fill="rgb(100%, 100%, 100%)" fill-opacity="1"><g transform="translate(11.964777, 26.664195)"><g><path d="M 3.734375 -9.707031 C 3.464844 -9.664062 3.105469 -9.394531 2.652344 -8.894531 C 2.195312 -8.382812 1.808594 -7.824219 1.496094 -7.242188 C 1.113281 -6.5 0.796875 -5.671875 0.570312 -4.789062 C 0.328125 -3.890625 0.214844 -3.066406 0.214844 -2.324219 C 0.214844 -1.925781 0.257812 -1.566406 0.34375 -1.226562 C 0.414062 -0.855469 0.511719 -0.597656 0.628906 -0.425781 C 0.742188 -0.242188 0.925781 -0.0703125 1.199219 0.0859375 C 1.453125 0.257812 1.695312 0.34375 1.910156 0.34375 C 1.953125 0.34375 2.082031 0.34375 2.28125 0.3125 C 2.9375 0.257812 3.75 -0.128906 4.703125 -0.855469 C 4.988281 -1.082031 5.289062 -1.382812 5.601562 -1.753906 C 5.914062 -2.125 6.070312 -2.367188 6.070312 -2.480469 C 6.070312 -2.535156 5.988281 -2.59375 5.816406 -2.679688 C 5.644531 -2.75 5.445312 -2.808594 5.230469 -2.863281 L 5.1875 -2.863281 C 5.160156 -2.863281 5.144531 -2.878906 5.144531 -2.878906 C 4.988281 -2.878906 4.6875 -2.652344 4.234375 -2.195312 C 3.863281 -1.824219 3.464844 -1.496094 3.066406 -1.226562 C 2.636719 -0.941406 2.335938 -0.8125 2.152344 -0.8125 C 1.980469 -0.8125 1.851562 -0.882812 1.753906 -1.054688 C 1.640625 -1.210938 1.597656 -1.410156 1.597656 -1.640625 C 1.597656 -1.96875 1.640625 -2.453125 1.726562 -3.105469 C 1.808594 -3.761719 1.910156 -4.277344 2.023438 -4.675781 C 2.136719 -5.101562 2.410156 -5.757812 2.820312 -6.640625 C 3.222656 -7.511719 3.507812 -8.011719 3.664062 -8.152344 C 3.71875 -8.210938 3.761719 -8.253906 3.792969 -8.265625 C 3.820312 -8.265625 3.835938 -8.265625 3.863281 -8.238281 C 3.863281 -8.195312 3.875 -8.125 3.90625 -8.039062 C 3.90625 -7.980469 3.917969 -7.894531 3.917969 -7.769531 C 3.917969 -7.597656 3.90625 -7.441406 3.875 -7.285156 C 3.847656 -7.15625 3.835938 -7.027344 3.835938 -6.914062 C 3.835938 -6.8125 3.835938 -6.757812 3.863281 -6.742188 C 3.917969 -6.683594 4.121094 -6.613281 4.445312 -6.554688 C 4.589844 -6.515625 4.730469 -6.5 4.847656 -6.5 C 4.960938 -6.5 5.046875 -6.527344 5.117188 -6.613281 C 5.175781 -6.683594 5.246094 -6.839844 5.332031 -7.070312 C 5.386719 -7.269531 5.429688 -7.46875 5.429688 -7.667969 C 5.429688 -7.910156 5.359375 -8.238281 5.246094 -8.652344 C 5.101562 -9.078125 4.960938 -9.363281 4.832031 -9.519531 C 4.6875 -9.664062 4.488281 -9.75 4.21875 -9.75 C 4.089844 -9.75 3.933594 -9.734375 3.734375 -9.707031 Z M 3.734375 -9.707031 "/></g></g></g><g fill="rgb(100%, 100%, 100%)" fill-opacity="1"><g transform="translate(18.291671, 26.664195)"><g><path d="M 3.59375 -5.6875 C 3.847656 -5.574219 4.078125 -5.359375 4.277344 -5.046875 C 4.390625 -4.847656 4.476562 -4.675781 4.519531 -4.53125 C 4.5625 -4.390625 4.589844 -4.160156 4.589844 -3.875 C 4.589844 -2.765625 4.390625 -2.050781 3.992188 -1.726562 C 3.59375 -1.382812 3.105469 -1.210938 2.566406 -1.210938 C 2.222656 -1.210938 1.953125 -1.28125 1.78125 -1.453125 C 1.652344 -1.566406 1.597656 -1.839844 1.597656 -2.238281 C 1.597656 -2.496094 1.652344 -2.992188 1.765625 -3.707031 C 1.882812 -4.417969 1.980469 -4.816406 2.050781 -4.929688 C 2.082031 -4.972656 2.265625 -5.144531 2.621094 -5.429688 C 2.964844 -5.714844 3.164062 -5.859375 3.191406 -5.859375 C 3.191406 -5.859375 3.335938 -5.800781 3.59375 -5.6875 Z M 1.667969 -6.542969 C 1.324219 -6.257812 1.082031 -5.957031 0.925781 -5.660156 C 0.753906 -5.34375 0.597656 -4.859375 0.457031 -4.191406 C 0.300781 -3.550781 0.226562 -2.980469 0.226562 -2.464844 C 0.226562 -2.125 0.269531 -1.78125 0.355469 -1.453125 C 0.457031 -1.027344 0.742188 -0.667969 1.210938 -0.386719 C 1.667969 -0.0859375 2.195312 0.0585938 2.78125 0.0585938 C 3.621094 0.0585938 4.347656 -0.226562 4.945312 -0.796875 C 5.175781 -1.027344 5.34375 -1.210938 5.445312 -1.382812 C 5.542969 -1.554688 5.644531 -1.796875 5.742188 -2.109375 C 5.914062 -2.652344 6 -3.191406 6 -3.734375 C 6 -4.320312 5.902344 -4.789062 5.730469 -5.160156 C 5.160156 -6.371094 4.21875 -6.984375 2.894531 -6.984375 C 2.566406 -6.984375 2.351562 -6.957031 2.238281 -6.925781 C 2.109375 -6.871094 1.925781 -6.742188 1.667969 -6.542969 Z M 1.667969 -6.542969 "/></g></g></g><g fill="rgb(100%, 100%, 100%)" fill-opacity="1"><g transform="translate(24.547317, 26.664195)"><g><path d="M 0.753906 -9.707031 C 0.613281 -9.621094 0.484375 -9.078125 0.386719 -8.109375 C 0.269531 -7.125 0.226562 -6.101562 0.226562 -5.015625 C 0.226562 -4.417969 0.257812 -3.847656 0.3125 -3.308594 C 0.371094 -2.652344 0.457031 -2.039062 0.554688 -1.480469 C 0.640625 -0.925781 0.726562 -0.613281 0.796875 -0.554688 C 0.882812 -0.511719 1.082031 -0.46875 1.410156 -0.425781 C 1.625 -0.398438 1.753906 -0.398438 1.78125 -0.398438 C 1.867188 -0.398438 1.925781 -0.414062 1.980469 -0.441406 C 2.007812 -0.46875 2.066406 -0.554688 2.136719 -0.667969 C 2.421875 -1.238281 2.578125 -2.535156 2.578125 -4.546875 C 2.578125 -6.640625 2.410156 -8.179688 2.09375 -9.179688 C 1.996094 -9.449219 1.9375 -9.636719 1.910156 -9.734375 C 1.652344 -9.75 1.480469 -9.761719 1.398438 -9.761719 L 1.210938 -9.761719 C 0.953125 -9.761719 0.796875 -9.734375 0.753906 -9.707031 Z M 0.753906 -9.707031 "/></g></g></g><g fill="rgb(100%, 100%, 100%)" fill-opacity="1"><g transform="translate(27.383019, 26.664195)"><g><path d="M 0.753906 -9.707031 C 0.613281 -9.621094 0.484375 -9.078125 0.386719 -8.109375 C 0.269531 -7.125 0.226562 -6.101562 0.226562 -5.015625 C 0.226562 -4.417969 0.257812 -3.847656 0.3125 -3.308594 C 0.371094 -2.652344 0.457031 -2.039062 0.554688 -1.480469 C 0.640625 -0.925781 0.726562 -0.613281 0.796875 -0.554688 C 0.882812 -0.511719 1.082031 -0.46875 1.410156 -0.425781 C 1.625 -0.398438 1.753906 -0.398438 1.78125 -0.398438 C 1.867188 -0.398438 1.925781 -0.414062 1.980469 -0.441406 C 2.007812 -0.46875 2.066406 -0.554688 2.136719 -0.667969 C 2.421875 -1.238281 2.578125 -2.535156 2.578125 -4.546875 C 2.578125 -6.640625 2.410156 -8.179688 2.09375 -9.179688 C 1.996094 -9.449219 1.9375 -9.636719 1.910156 -9.734375 C 1.652344 -9.75 1.480469 -9.761719 1.398438 -9.761719 L 1.210938 -9.761719 C 0.953125 -9.761719 0.796875 -9.734375 0.753906 -9.707031 Z M 0.753906 -9.707031 "/></g></g></g><g fill="rgb(100%, 100%, 100%)" fill-opacity="1"><g transform="translate(30.218721, 26.664195)"><g><path d="M 3.675781 -5.972656 C 3.707031 -5.6875 3.734375 -5.53125 3.734375 -5.5 C 3.734375 -5.359375 3.691406 -5.246094 3.632812 -5.160156 C 3.5625 -5.074219 3.421875 -4.960938 3.222656 -4.816406 C 2.9375 -4.605469 2.609375 -4.503906 2.238281 -4.503906 C 1.867188 -4.503906 1.695312 -4.519531 1.695312 -4.546875 C 1.695312 -4.605469 1.753906 -4.804688 1.894531 -5.160156 C 2.007812 -5.5 2.222656 -5.816406 2.523438 -6.113281 C 2.808594 -6.398438 3.066406 -6.554688 3.277344 -6.554688 L 3.320312 -6.554688 C 3.449219 -6.542969 3.535156 -6.5 3.5625 -6.441406 C 3.59375 -6.371094 3.632812 -6.214844 3.675781 -5.972656 Z M 2.335938 -7.609375 C 1.824219 -7.355469 1.398438 -6.957031 1.039062 -6.414062 C 0.683594 -5.84375 0.457031 -5.214844 0.34375 -4.503906 C 0.257812 -4.132812 0.226562 -3.691406 0.226562 -3.148438 C 0.226562 -2.378906 0.285156 -1.894531 0.414062 -1.683594 C 0.628906 -1.226562 1.027344 -0.8125 1.609375 -0.457031 C 2.179688 -0.0859375 2.78125 0.128906 3.421875 0.214844 C 3.59375 0.242188 3.691406 0.242188 3.75 0.242188 C 3.917969 0.242188 4.121094 0.183594 4.347656 0.0585938 C 4.589844 -0.0859375 4.789062 -0.257812 4.960938 -0.46875 C 5.074219 -0.597656 5.144531 -0.683594 5.203125 -0.742188 C 5.03125 -0.941406 4.902344 -1.082031 4.832031 -1.183594 C 4.617188 -1.425781 4.476562 -1.554688 4.417969 -1.554688 C 4.363281 -1.554688 4.304688 -1.511719 4.21875 -1.453125 C 4.078125 -1.355469 3.804688 -1.296875 3.433594 -1.28125 L 3.277344 -1.28125 C 2.738281 -1.28125 2.308594 -1.398438 2.023438 -1.640625 C 1.726562 -1.867188 1.582031 -2.195312 1.582031 -2.621094 L 1.582031 -3.121094 C 1.910156 -3.148438 2.167969 -3.164062 2.335938 -3.179688 C 2.808594 -3.207031 3.25 -3.320312 3.648438 -3.519531 C 4.191406 -3.792969 4.5625 -4.089844 4.773438 -4.433594 C 4.972656 -4.746094 5.089844 -5.214844 5.101562 -5.84375 C 5.101562 -6.671875 4.859375 -7.269531 4.390625 -7.609375 C 4.175781 -7.753906 3.863281 -7.839844 3.433594 -7.839844 C 3.007812 -7.839844 2.652344 -7.753906 2.335938 -7.609375 Z M 2.335938 -7.609375 "/></g></g></g><g fill="rgb(100%, 100%, 100%)" fill-opacity="1"><g transform="translate(35.67638, 26.664195)"><g><path d="M 3.25 -7.382812 C 2.878906 -7.199219 2.453125 -6.855469 1.980469 -6.34375 C 1.496094 -5.828125 1.140625 -5.34375 0.941406 -4.902344 C 0.457031 -3.933594 0.226562 -3.066406 0.226562 -2.28125 C 0.226562 -1.410156 0.511719 -0.785156 1.082031 -0.414062 C 1.355469 -0.214844 1.765625 -0.101562 2.324219 -0.0703125 C 2.4375 -0.0585938 2.609375 -0.0585938 2.808594 -0.0585938 C 3.078125 -0.0585938 3.390625 -0.140625 3.734375 -0.3125 C 4.148438 -0.511719 4.460938 -0.699219 4.675781 -0.898438 C 4.859375 -1.070312 5.046875 -1.3125 5.246094 -1.597656 C 5.417969 -1.882812 5.515625 -2.082031 5.515625 -2.222656 C 5.5 -2.238281 5.5 -2.253906 5.5 -2.265625 C 5.472656 -2.351562 5.273438 -2.421875 4.917969 -2.480469 C 4.648438 -2.507812 4.460938 -2.535156 4.375 -2.550781 C 4.175781 -2.324219 4.019531 -2.152344 3.917969 -2.039062 C 3.632812 -1.695312 3.378906 -1.46875 3.164062 -1.324219 C 2.9375 -1.183594 2.707031 -1.125 2.464844 -1.125 C 2.351562 -1.125 2.28125 -1.125 2.222656 -1.140625 C 1.882812 -1.183594 1.710938 -1.253906 1.710938 -1.355469 C 1.710938 -1.523438 1.78125 -1.910156 1.953125 -2.507812 C 2.109375 -3.105469 2.238281 -3.507812 2.335938 -3.707031 C 2.59375 -4.21875 3.164062 -4.972656 4.046875 -5.972656 C 4.488281 -6.457031 4.71875 -6.726562 4.71875 -6.8125 C 4.71875 -6.898438 4.617188 -7.042969 4.433594 -7.269531 C 4.261719 -7.496094 4.089844 -7.609375 3.917969 -7.609375 C 3.761719 -7.609375 3.535156 -7.527344 3.25 -7.382812 Z M 3.25 -7.382812 "/></g></g></g><g fill="rgb(100%, 100%, 100%)" fill-opacity="1"><g transform="translate(41.461783, 26.664195)"><g><path d="M 1.726562 -9.820312 C 1.625 -9.605469 1.480469 -9.109375 1.3125 -8.308594 C 1.140625 -7.511719 1.054688 -7 1.054688 -6.796875 C 1.054688 -6.714844 1.027344 -6.640625 0.96875 -6.585938 C 0.898438 -6.527344 0.785156 -6.472656 0.628906 -6.414062 C 0.355469 -6.300781 0.226562 -6.171875 0.226562 -6.058594 C 0.226562 -5.988281 0.269531 -5.816406 0.386719 -5.542969 C 0.484375 -5.257812 0.597656 -5.117188 0.726562 -5.117188 C 0.796875 -5.117188 0.855469 -5.015625 0.882812 -4.816406 C 0.914062 -4.617188 0.953125 -4.105469 0.984375 -3.292969 C 1.011719 -2.039062 1.097656 -1.15625 1.238281 -0.667969 C 1.382812 -0.15625 1.480469 0.199219 1.539062 0.398438 C 1.566406 0.570312 1.625 0.65625 1.710938 0.65625 C 1.765625 0.65625 1.96875 0.597656 2.292969 0.457031 C 2.480469 0.386719 2.621094 0.3125 2.707031 0.226562 C 2.792969 0.15625 2.851562 0.0585938 2.90625 -0.0859375 C 3.105469 -0.710938 3.222656 -1.910156 3.222656 -3.648438 L 3.222656 -5.445312 L 3.519531 -5.488281 C 3.917969 -5.574219 4.203125 -5.644531 4.347656 -5.703125 C 4.488281 -5.773438 4.574219 -5.871094 4.574219 -6 C 4.574219 -6.113281 4.503906 -6.300781 4.390625 -6.542969 C 4.320312 -6.683594 4.261719 -6.769531 4.21875 -6.828125 C 4.175781 -6.855469 4.105469 -6.882812 4.019531 -6.882812 C 3.976562 -6.882812 3.863281 -6.871094 3.664062 -6.855469 C 3.390625 -6.828125 3.207031 -6.796875 3.121094 -6.796875 L 3.121094 -8.394531 C 3.121094 -9.4375 3.078125 -9.992188 3.023438 -10.046875 C 2.90625 -10.105469 2.695312 -10.148438 2.410156 -10.175781 C 2.136719 -10.207031 1.96875 -10.21875 1.882812 -10.234375 C 1.796875 -10.019531 1.753906 -9.878906 1.726562 -9.820312 Z M 1.726562 -9.820312 "/></g></g></g><g fill="rgb(100%, 100%, 100%)" fill-opacity="1"><g transform="translate(46.292452, 26.664195)"><g><path d="M 0.585938 -6.34375 C 0.46875 -6.199219 0.386719 -5.828125 0.328125 -5.203125 C 0.242188 -4.574219 0.214844 -3.875 0.214844 -3.105469 C 0.214844 -2.335938 0.257812 -1.640625 0.34375 -1.027344 C 0.398438 -0.570312 0.457031 -0.285156 0.5 -0.140625 C 0.542969 0 0.628906 0.0703125 0.753906 0.0703125 C 0.8125 0.0703125 0.984375 0.0273438 1.253906 -0.0585938 C 1.398438 -0.101562 1.480469 -0.171875 1.539062 -0.257812 C 1.582031 -0.34375 1.625 -0.542969 1.683594 -0.855469 C 1.796875 -1.683594 1.867188 -3.078125 1.867188 -5.074219 C 1.867188 -5.660156 1.851562 -6 1.824219 -6.113281 C 1.78125 -6.257812 1.726562 -6.34375 1.667969 -6.371094 C 1.609375 -6.398438 1.453125 -6.429688 1.210938 -6.457031 L 1.054688 -6.457031 C 0.769531 -6.457031 0.613281 -6.414062 0.585938 -6.34375 Z M 0.667969 -8.980469 C 0.597656 -8.9375 0.570312 -8.75 0.570312 -8.421875 L 0.570312 -8.222656 C 0.570312 -7.96875 0.585938 -7.796875 0.597656 -7.710938 C 0.597656 -7.597656 0.785156 -7.539062 1.140625 -7.527344 L 1.28125 -7.527344 C 1.324219 -7.511719 1.355469 -7.511719 1.382812 -7.511719 C 1.582031 -7.511719 1.726562 -7.582031 1.808594 -7.726562 C 1.851562 -7.839844 1.882812 -7.980469 1.882812 -8.152344 C 1.882812 -8.582031 1.808594 -8.867188 1.683594 -8.980469 C 1.597656 -9.035156 1.425781 -9.066406 1.167969 -9.066406 C 0.914062 -9.066406 0.753906 -9.035156 0.667969 -8.980469 Z M 0.667969 -8.980469 "/></g></g></g><g fill="rgb(100%, 100%, 100%)" fill-opacity="1"><g transform="translate(48.444166, 26.664195)"><g><path d="M 2.265625 -9.234375 C 1.554688 -8.625 1.140625 -7.710938 1.039062 -6.515625 C 1.011719 -6.101562 0.984375 -5.828125 0.984375 -5.6875 C 0.796875 -5.601562 0.667969 -5.542969 0.585938 -5.515625 C 0.355469 -5.417969 0.242188 -5.316406 0.242188 -5.214844 C 0.242188 -5.160156 0.242188 -5.117188 0.257812 -5.089844 C 0.425781 -4.488281 0.570312 -4.191406 0.683594 -4.191406 C 0.742188 -4.191406 0.796875 -3.347656 0.855469 -1.683594 C 0.898438 -0.0703125 0.941406 0.914062 0.984375 1.28125 L 1.039062 1.738281 C 1.238281 1.710938 1.398438 1.683594 1.511719 1.667969 C 1.824219 1.640625 2.023438 1.582031 2.082031 1.511719 C 2.238281 1.367188 2.367188 0.0429688 2.453125 -2.4375 C 2.480469 -3.320312 2.496094 -3.992188 2.523438 -4.445312 L 3.121094 -4.53125 C 3.378906 -4.574219 3.5625 -4.605469 3.691406 -4.632812 C 3.777344 -4.890625 3.847656 -5.074219 3.90625 -5.214844 C 4.019531 -5.472656 4.078125 -5.671875 4.078125 -5.800781 C 4.078125 -5.828125 4.0625 -5.859375 4.046875 -5.886719 C 3.992188 -5.929688 3.71875 -5.957031 3.222656 -5.988281 C 2.851562 -5.988281 2.636719 -6 2.578125 -6.027344 C 2.507812 -6.058594 2.464844 -6.144531 2.4375 -6.285156 C 2.394531 -6.457031 2.378906 -6.628906 2.378906 -6.8125 C 2.378906 -7.125 2.480469 -7.453125 2.695312 -7.796875 C 2.921875 -8.152344 3.050781 -8.339844 3.09375 -8.339844 C 3.121094 -8.339844 3.191406 -8.179688 3.308594 -7.894531 C 3.378906 -7.695312 3.433594 -7.554688 3.476562 -7.453125 C 3.605469 -7.441406 3.804688 -7.425781 4.0625 -7.425781 C 4.304688 -7.410156 4.503906 -7.398438 4.648438 -7.398438 L 4.648438 -7.78125 C 4.648438 -8.011719 4.574219 -8.296875 4.433594 -8.609375 C 4.289062 -8.910156 4.132812 -9.121094 3.960938 -9.265625 C 3.761719 -9.40625 3.492188 -9.492188 3.136719 -9.492188 C 2.738281 -9.492188 2.453125 -9.40625 2.265625 -9.234375 Z M 2.265625 -9.234375 "/></g></g></g><g fill="rgb(100%, 100%, 100%)" fill-opacity="1"><g transform="translate(11.964777, 39.714735)"><g><path d="M 3.078125 -9.761719 C 2.335938 -9.550781 1.539062 -8.339844 0.683594 -6.113281 C 0.527344 -5.703125 0.425781 -5.375 0.386719 -5.117188 C 0.328125 -4.859375 0.285156 -4.417969 0.257812 -3.792969 C 0.226562 -3.25 0.226562 -2.9375 0.226562 -2.863281 C 0.226562 -2.496094 0.300781 -2.109375 0.441406 -1.738281 C 0.742188 -0.871094 1.113281 -0.328125 1.539062 -0.113281 C 1.753906 0 2.152344 0.0703125 2.75 0.101562 C 2.878906 0.113281 3.050781 0.113281 3.25 0.113281 C 3.535156 0.113281 3.792969 0.0585938 4.035156 -0.0859375 C 4.21875 -0.199219 4.347656 -0.269531 4.402344 -0.3125 C 4.433594 -0.15625 4.445312 -0.0429688 4.460938 0.015625 C 4.488281 0.171875 4.53125 0.257812 4.605469 0.285156 C 4.660156 0.328125 4.816406 0.34375 5.089844 0.34375 L 5.644531 0.34375 C 5.660156 0.140625 5.671875 -0.015625 5.6875 -0.113281 C 5.703125 -0.257812 5.757812 -1.011719 5.84375 -2.378906 C 5.871094 -2.980469 5.886719 -3.449219 5.886719 -3.761719 C 5.886719 -4.160156 5.859375 -4.476562 5.800781 -4.703125 C 5.714844 -4.945312 5.671875 -5.117188 5.644531 -5.203125 L 4.816406 -5.203125 C 4.445312 -5.203125 3.960938 -5.144531 3.378906 -5.058594 C 2.78125 -4.972656 2.4375 -4.890625 2.324219 -4.832031 C 2.292969 -4.804688 2.292969 -4.789062 2.292969 -4.761719 C 2.292969 -4.648438 2.324219 -4.488281 2.410156 -4.277344 C 2.496094 -4.019531 2.550781 -3.863281 2.578125 -3.777344 L 3.390625 -3.777344 C 3.464844 -3.777344 3.5625 -3.777344 3.707031 -3.792969 L 3.960938 -3.792969 C 4.046875 -3.792969 4.132812 -3.777344 4.191406 -3.777344 C 4.175781 -3.578125 4.105469 -3.191406 3.976562 -2.636719 C 3.835938 -2.066406 3.734375 -1.710938 3.648438 -1.554688 C 3.535156 -1.355469 3.433594 -1.210938 3.347656 -1.140625 C 3.25 -1.070312 3.121094 -1.039062 2.949219 -1.039062 C 2.820312 -1.039062 2.652344 -1.054688 2.453125 -1.082031 C 2.222656 -1.113281 2.066406 -1.15625 2.007812 -1.226562 C 1.9375 -1.28125 1.839844 -1.453125 1.726562 -1.738281 C 1.554688 -2.082031 1.480469 -2.421875 1.480469 -2.765625 C 1.480469 -2.820312 1.480469 -3.09375 1.511719 -3.5625 C 1.539062 -4.132812 1.597656 -4.546875 1.652344 -4.789062 C 1.710938 -5.015625 1.851562 -5.445312 2.109375 -6.070312 C 2.820312 -7.839844 3.363281 -8.738281 3.734375 -8.738281 C 3.835938 -8.738281 3.90625 -8.707031 3.949219 -8.652344 C 3.976562 -8.582031 4.003906 -8.410156 4.019531 -8.136719 C 4.019531 -7.867188 4.035156 -7.667969 4.046875 -7.527344 C 4.175781 -7.527344 4.375 -7.511719 4.632812 -7.511719 C 4.890625 -7.484375 5.074219 -7.46875 5.214844 -7.46875 C 5.246094 -7.652344 5.257812 -7.796875 5.289062 -7.894531 C 5.316406 -8.039062 5.332031 -8.179688 5.332031 -8.339844 C 5.332031 -8.835938 5.175781 -9.234375 4.875 -9.550781 C 4.730469 -9.679688 4.617188 -9.761719 4.53125 -9.804688 C 4.445312 -9.835938 4.320312 -9.863281 4.148438 -9.863281 L 3.976562 -9.863281 C 3.605469 -9.863281 3.308594 -9.820312 3.078125 -9.761719 Z M 3.078125 -9.761719 "/></g></g></g><g fill="rgb(100%, 100%, 100%)" fill-opacity="1"><g transform="translate(18.106424, 39.714735)"><g><path d="M 3.664062 -6.3125 C 3.691406 -6.144531 3.71875 -5.914062 3.71875 -5.628906 C 3.71875 -5.429688 3.691406 -5.289062 3.648438 -5.203125 C 3.59375 -5.117188 3.464844 -4.988281 3.234375 -4.832031 C 2.894531 -4.574219 2.566406 -4.460938 2.253906 -4.460938 C 2.050781 -4.460938 1.925781 -4.460938 1.867188 -4.488281 C 1.796875 -4.503906 1.765625 -4.5625 1.765625 -4.660156 C 1.765625 -4.773438 1.808594 -4.960938 1.910156 -5.230469 C 2.007812 -5.558594 2.222656 -5.859375 2.535156 -6.144531 C 2.851562 -6.414062 3.121094 -6.554688 3.363281 -6.554688 C 3.519531 -6.554688 3.621094 -6.472656 3.664062 -6.3125 Z M 2.265625 -7.570312 C 1.539062 -7.140625 1.027344 -6.585938 0.726562 -5.902344 C 0.414062 -5.203125 0.242188 -4.261719 0.242188 -3.09375 C 0.242188 -2.4375 0.226562 -2.007812 0.226562 -1.796875 C 0.425781 -1.523438 0.585938 -1.324219 0.683594 -1.199219 C 0.855469 -0.953125 1.027344 -0.769531 1.183594 -0.65625 C 1.324219 -0.527344 1.566406 -0.386719 1.882812 -0.242188 C 2.652344 0.113281 3.25 0.285156 3.691406 0.285156 C 3.875 0.285156 4.035156 0.257812 4.160156 0.199219 C 4.304688 0.140625 4.519531 -0.015625 4.789062 -0.257812 C 5.046875 -0.484375 5.1875 -0.640625 5.1875 -0.710938 C 5.1875 -0.742188 5.058594 -0.882812 4.816406 -1.15625 C 4.605469 -1.382812 4.460938 -1.496094 4.402344 -1.496094 C 4.375 -1.496094 4.289062 -1.453125 4.175781 -1.382812 C 4.003906 -1.28125 3.777344 -1.238281 3.476562 -1.238281 C 3.121094 -1.238281 2.765625 -1.296875 2.421875 -1.410156 C 2.066406 -1.523438 1.851562 -1.667969 1.765625 -1.839844 C 1.710938 -1.894531 1.667969 -2.136719 1.609375 -2.535156 C 1.566406 -2.808594 1.539062 -2.992188 1.539062 -3.078125 C 1.851562 -3.105469 2.09375 -3.121094 2.265625 -3.136719 C 2.835938 -3.164062 3.378906 -3.320312 3.890625 -3.605469 C 4.390625 -3.875 4.730469 -4.203125 4.929688 -4.589844 C 5.015625 -4.773438 5.074219 -5.160156 5.074219 -5.757812 C 5.074219 -6.527344 4.945312 -7.054688 4.703125 -7.355469 C 4.445312 -7.640625 3.992188 -7.796875 3.335938 -7.796875 C 2.863281 -7.796875 2.507812 -7.710938 2.265625 -7.570312 Z M 2.621094 -9.179688 C 2.335938 -8.878906 2.136719 -8.679688 2.039062 -8.59375 C 2.179688 -8.453125 2.265625 -8.367188 2.324219 -8.339844 C 2.453125 -8.195312 2.535156 -8.097656 2.578125 -8.054688 L 3.050781 -8.308594 C 3.363281 -8.464844 3.605469 -8.679688 3.792969 -8.964844 C 3.933594 -9.164062 4.035156 -9.308594 4.089844 -9.378906 C 3.976562 -9.464844 3.890625 -9.519531 3.835938 -9.578125 C 3.691406 -9.691406 3.5625 -9.75 3.449219 -9.75 C 3.265625 -9.75 2.992188 -9.550781 2.621094 -9.179688 Z M 2.621094 -9.179688 "/></g></g></g><g fill="rgb(100%, 100%, 100%)" fill-opacity="1"><g transform="translate(23.549833, 39.714735)"><g><path d="M 4.488281 -6.785156 C 4.191406 -6.613281 3.863281 -6.3125 3.519531 -5.871094 C 3.164062 -5.429688 2.835938 -4.902344 2.523438 -4.304688 C 2.324219 -3.90625 2.195312 -3.648438 2.136719 -3.519531 C 2.09375 -3.792969 2.066406 -4.003906 2.050781 -4.148438 C 1.851562 -5.671875 1.726562 -6.484375 1.667969 -6.585938 C 1.597656 -6.671875 1.324219 -6.726562 0.839844 -6.726562 C 0.628906 -6.726562 0.5 -6.699219 0.46875 -6.671875 C 0.425781 -6.628906 0.371094 -6.398438 0.3125 -6 C 0.257812 -5.703125 0.226562 -5.386719 0.226562 -5.046875 C 0.226562 -4.390625 0.285156 -3.664062 0.425781 -2.894531 C 0.554688 -2.125 0.726562 -1.480469 0.941406 -0.96875 C 1.15625 -0.398438 1.296875 -0.0429688 1.367188 0.0703125 C 1.425781 0.183594 1.511719 0.242188 1.625 0.242188 C 1.652344 0.242188 1.695312 0.242188 1.753906 0.226562 C 1.808594 0.214844 1.867188 0.199219 1.894531 0.199219 C 2.195312 0.140625 2.351562 0.113281 2.367188 0.101562 C 2.394531 0.0703125 2.464844 -0.199219 2.609375 -0.742188 C 2.765625 -1.339844 3.148438 -2.28125 3.761719 -3.5625 C 4.375 -4.832031 4.804688 -5.558594 5.03125 -5.757812 C 5.132812 -5.84375 5.230469 -5.859375 5.34375 -5.816406 C 5.402344 -5.785156 5.445312 -5.703125 5.460938 -5.558594 C 5.472656 -5.417969 5.488281 -5.101562 5.488281 -4.648438 C 5.488281 -3.90625 5.53125 -3.023438 5.644531 -1.96875 C 5.757812 -0.941406 5.816406 -0.355469 5.816406 -0.226562 C 5.816406 -0.15625 5.828125 -0.113281 5.871094 -0.101562 C 5.902344 -0.0703125 5.988281 -0.0585938 6.101562 -0.0585938 C 6.113281 -0.0585938 6.15625 -0.0585938 6.214844 -0.0703125 L 6.34375 -0.0703125 C 6.613281 -0.0859375 6.796875 -0.101562 6.882812 -0.101562 C 6.914062 -0.542969 6.941406 -0.871094 6.96875 -1.097656 C 7.011719 -1.480469 7.042969 -1.980469 7.042969 -2.59375 C 7.042969 -4.203125 6.941406 -5.332031 6.742188 -5.972656 C 6.613281 -6.386719 6.484375 -6.65625 6.34375 -6.796875 C 6.214844 -6.898438 5.957031 -6.96875 5.585938 -7.027344 C 5.386719 -7.042969 5.273438 -7.054688 5.246094 -7.054688 C 5.046875 -7.054688 4.804688 -6.957031 4.488281 -6.785156 Z M 4.488281 -6.785156 "/></g></g></g><g fill="rgb(100%, 100%, 100%)" fill-opacity="1"><g transform="translate(30.831461, 39.714735)"><g><path d="M 3.664062 -6.3125 C 3.691406 -6.144531 3.71875 -5.914062 3.71875 -5.628906 C 3.71875 -5.429688 3.691406 -5.289062 3.648438 -5.203125 C 3.59375 -5.117188 3.464844 -4.988281 3.234375 -4.832031 C 2.894531 -4.574219 2.566406 -4.460938 2.253906 -4.460938 C 2.050781 -4.460938 1.925781 -4.460938 1.867188 -4.488281 C 1.796875 -4.503906 1.765625 -4.5625 1.765625 -4.660156 C 1.765625 -4.773438 1.808594 -4.960938 1.910156 -5.230469 C 2.007812 -5.558594 2.222656 -5.859375 2.535156 -6.144531 C 2.851562 -6.414062 3.121094 -6.554688 3.363281 -6.554688 C 3.519531 -6.554688 3.621094 -6.472656 3.664062 -6.3125 Z M 2.265625 -7.570312 C 1.539062 -7.140625 1.027344 -6.585938 0.726562 -5.902344 C 0.414062 -5.203125 0.242188 -4.261719 0.242188 -3.09375 C 0.242188 -2.4375 0.226562 -2.007812 0.226562 -1.796875 C 0.425781 -1.523438 0.585938 -1.324219 0.683594 -1.199219 C 0.855469 -0.953125 1.027344 -0.769531 1.183594 -0.65625 C 1.324219 -0.527344 1.566406 -0.386719 1.882812 -0.242188 C 2.652344 0.113281 3.25 0.285156 3.691406 0.285156 C 3.875 0.285156 4.035156 0.257812 4.160156 0.199219 C 4.304688 0.140625 4.519531 -0.015625 4.789062 -0.257812 C 5.046875 -0.484375 5.1875 -0.640625 5.1875 -0.710938 C 5.1875 -0.742188 5.058594 -0.882812 4.816406 -1.15625 C 4.605469 -1.382812 4.460938 -1.496094 4.402344 -1.496094 C 4.375 -1.496094 4.289062 -1.453125 4.175781 -1.382812 C 4.003906 -1.28125 3.777344 -1.238281 3.476562 -1.238281 C 3.121094 -1.238281 2.765625 -1.296875 2.421875 -1.410156 C 2.066406 -1.523438 1.851562 -1.667969 1.765625 -1.839844 C 1.710938 -1.894531 1.667969 -2.136719 1.609375 -2.535156 C 1.566406 -2.808594 1.539062 -2.992188 1.539062 -3.078125 C 1.851562 -3.105469 2.09375 -3.121094 2.265625 -3.136719 C 2.835938 -3.164062 3.378906 -3.320312 3.890625 -3.605469 C 4.390625 -3.875 4.730469 -4.203125 4.929688 -4.589844 C 5.015625 -4.773438 5.074219 -5.160156 5.074219 -5.757812 C 5.074219 -6.527344 4.945312 -7.054688 4.703125 -7.355469 C 4.445312 -7.640625 3.992188 -7.796875 3.335938 -7.796875 C 2.863281 -7.796875 2.507812 -7.710938 2.265625 -7.570312 Z M 2.621094 -9.179688 C 2.335938 -8.878906 2.136719 -8.679688 2.039062 -8.59375 C 2.179688 -8.453125 2.265625 -8.367188 2.324219 -8.339844 C 2.453125 -8.195312 2.535156 -8.097656 2.578125 -8.054688 L 3.050781 -8.308594 C 3.363281 -8.464844 3.605469 -8.679688 3.792969 -8.964844 C 3.933594 -9.164062 4.035156 -9.308594 4.089844 -9.378906 C 3.976562 -9.464844 3.890625 -9.519531 3.835938 -9.578125 C 3.691406 -9.691406 3.5625 -9.75 3.449219 -9.75 C 3.265625 -9.75 2.992188 -9.550781 2.621094 -9.179688 Z M 2.621094 -9.179688 "/></g></g></g><g fill="rgb(100%, 100%, 100%)" fill-opacity="1"><g transform="translate(36.27487, 39.714735)"><g><path d="M 4.089844 -8.238281 C 3.605469 -8.039062 3.121094 -7.570312 2.609375 -6.796875 C 2.253906 -6.269531 2.050781 -6.015625 2.023438 -6.015625 C 1.996094 -6.015625 1.894531 -6.1875 1.710938 -6.527344 C 1.597656 -6.726562 1.496094 -6.871094 1.410156 -6.957031 C 1.324219 -7.027344 1.226562 -7.070312 1.113281 -7.082031 L 1.027344 -7.082031 C 0.828125 -7.082031 0.65625 -7.054688 0.511719 -7.011719 C 0.386719 -6.957031 0.300781 -6.882812 0.269531 -6.8125 C 0.242188 -6.726562 0.226562 -6.542969 0.226562 -6.230469 C 0.226562 -5.542969 0.328125 -4.605469 0.554688 -3.40625 C 0.769531 -2.210938 0.996094 -1.355469 1.226562 -0.855469 C 1.296875 -0.667969 1.367188 -0.554688 1.441406 -0.527344 C 1.496094 -0.484375 1.640625 -0.46875 1.839844 -0.46875 C 2.152344 -0.46875 2.378906 -0.527344 2.496094 -0.65625 C 2.59375 -0.769531 2.664062 -1.011719 2.707031 -1.410156 C 2.738281 -1.523438 2.75 -1.753906 2.75 -2.09375 C 2.75 -2.4375 2.738281 -2.695312 2.707031 -2.835938 C 2.679688 -2.980469 2.679688 -3.148438 2.679688 -3.378906 C 2.679688 -3.578125 2.707031 -3.792969 2.78125 -4.003906 C 2.894531 -4.320312 3.066406 -4.703125 3.320312 -5.175781 C 3.578125 -5.628906 3.792969 -5.972656 3.960938 -6.171875 C 4.105469 -6.34375 4.203125 -6.472656 4.261719 -6.527344 C 4.261719 -6.1875 4.277344 -5.957031 4.277344 -5.84375 L 4.277344 -5.160156 C 4.476562 -5.058594 4.617188 -4.988281 4.71875 -4.945312 C 4.902344 -4.832031 5.058594 -4.789062 5.1875 -4.789062 C 5.214844 -4.789062 5.230469 -4.789062 5.246094 -4.804688 C 5.417969 -4.972656 5.515625 -5.601562 5.515625 -6.683594 C 5.515625 -7.339844 5.445312 -7.78125 5.316406 -8.011719 C 5.175781 -8.222656 5.003906 -8.339844 4.804688 -8.339844 L 4.71875 -8.339844 C 4.445312 -8.339844 4.234375 -8.296875 4.089844 -8.238281 Z M 4.089844 -8.238281 "/></g></g></g><g fill="rgb(100%, 100%, 100%)" fill-opacity="1"><g transform="translate(42.060272, 39.714735)"><g><path d="M 2.90625 -4.433594 C 2.679688 -3.75 2.421875 -3.164062 2.167969 -2.664062 C 1.894531 -2.152344 1.695312 -1.910156 1.582031 -1.910156 C 1.496094 -1.910156 1.453125 -2.023438 1.453125 -2.265625 C 1.453125 -2.609375 1.523438 -3.066406 1.683594 -3.664062 C 1.824219 -4.234375 2.007812 -4.71875 2.222656 -5.117188 C 2.292969 -5.289062 2.496094 -5.574219 2.835938 -5.945312 C 3.035156 -6.171875 3.179688 -6.328125 3.25 -6.414062 C 3.265625 -6.242188 3.277344 -6.113281 3.277344 -6.042969 C 3.292969 -5.773438 3.164062 -5.230469 2.90625 -4.433594 Z M 2.578125 -7.425781 C 2.351562 -7.285156 2.050781 -7 1.683594 -6.570312 C 1.3125 -6.144531 1.070312 -5.816406 0.953125 -5.585938 C 0.742188 -5.175781 0.570312 -4.660156 0.441406 -4.035156 C 0.300781 -3.390625 0.226562 -2.820312 0.226562 -2.335938 C 0.226562 -1.996094 0.257812 -1.753906 0.34375 -1.597656 C 0.570312 -1.039062 1.039062 -0.769531 1.765625 -0.769531 C 2.023438 -0.769531 2.210938 -0.785156 2.308594 -0.828125 C 2.410156 -0.855469 2.535156 -0.96875 2.707031 -1.140625 C 2.9375 -1.355469 3.148438 -1.625 3.378906 -1.96875 C 3.519531 -2.238281 3.621094 -2.378906 3.707031 -2.378906 L 3.71875 -2.378906 C 3.75 -2.367188 3.804688 -2.179688 3.863281 -1.839844 C 3.90625 -1.523438 4.003906 -1.183594 4.175781 -0.8125 C 4.332031 -0.441406 4.460938 -0.257812 4.574219 -0.257812 C 4.660156 -0.257812 4.847656 -0.328125 5.117188 -0.5 C 5.316406 -0.613281 5.460938 -0.683594 5.53125 -0.726562 C 5.515625 -1.808594 5.5 -2.609375 5.5 -3.148438 C 5.460938 -5.460938 5.359375 -6.855469 5.1875 -7.328125 C 5.132812 -7.46875 5.089844 -7.570312 5.074219 -7.625 L 3.976562 -7.625 C 3.222656 -7.625 2.75 -7.554688 2.578125 -7.425781 Z M 2.578125 -7.425781 "/></g></g></g><g fill="rgb(100%, 100%, 100%)" fill-opacity="1"><g transform="translate(47.859925, 39.714735)"><g><path d="M 1.726562 -9.820312 C 1.625 -9.605469 1.480469 -9.109375 1.3125 -8.308594 C 1.140625 -7.511719 1.054688 -7 1.054688 -6.796875 C 1.054688 -6.714844 1.027344 -6.640625 0.96875 -6.585938 C 0.898438 -6.527344 0.785156 -6.472656 0.628906 -6.414062 C 0.355469 -6.300781 0.226562 -6.171875 0.226562 -6.058594 C 0.226562 -5.988281 0.269531 -5.816406 0.386719 -5.542969 C 0.484375 -5.257812 0.597656 -5.117188 0.726562 -5.117188 C 0.796875 -5.117188 0.855469 -5.015625 0.882812 -4.816406 C 0.914062 -4.617188 0.953125 -4.105469 0.984375 -3.292969 C 1.011719 -2.039062 1.097656 -1.15625 1.238281 -0.667969 C 1.382812 -0.15625 1.480469 0.199219 1.539062 0.398438 C 1.566406 0.570312 1.625 0.65625 1.710938 0.65625 C 1.765625 0.65625 1.96875 0.597656 2.292969 0.457031 C 2.480469 0.386719 2.621094 0.3125 2.707031 0.226562 C 2.792969 0.15625 2.851562 0.0585938 2.90625 -0.0859375 C 3.105469 -0.710938 3.222656 -1.910156 3.222656 -3.648438 L 3.222656 -5.445312 L 3.519531 -5.488281 C 3.917969 -5.574219 4.203125 -5.644531 4.347656 -5.703125 C 4.488281 -5.773438 4.574219 -5.871094 4.574219 -6 C 4.574219 -6.113281 4.503906 -6.300781 4.390625 -6.542969 C 4.320312 -6.683594 4.261719 -6.769531 4.21875 -6.828125 C 4.175781 -6.855469 4.105469 -6.882812 4.019531 -6.882812 C 3.976562 -6.882812 3.863281 -6.871094 3.664062 -6.855469 C 3.390625 -6.828125 3.207031 -6.796875 3.121094 -6.796875 L 3.121094 -8.394531 C 3.121094 -9.4375 3.078125 -9.992188 3.023438 -10.046875 C 2.90625 -10.105469 2.695312 -10.148438 2.410156 -10.175781 C 2.136719 -10.207031 1.96875 -10.21875 1.882812 -10.234375 C 1.796875 -10.019531 1.753906 -9.878906 1.726562 -9.820312 Z M 1.726562 -9.820312 "/></g></g></g><g fill="rgb(100%, 100%, 100%)" fill-opacity="1"><g transform="translate(52.690594, 39.714735)"><g><path d="M 0.585938 -6.34375 C 0.46875 -6.199219 0.386719 -5.828125 0.328125 -5.203125 C 0.242188 -4.574219 0.214844 -3.875 0.214844 -3.105469 C 0.214844 -2.335938 0.257812 -1.640625 0.34375 -1.027344 C 0.398438 -0.570312 0.457031 -0.285156 0.5 -0.140625 C 0.542969 0 0.628906 0.0703125 0.753906 0.0703125 C 0.8125 0.0703125 0.984375 0.0273438 1.253906 -0.0585938 C 1.398438 -0.101562 1.480469 -0.171875 1.539062 -0.257812 C 1.582031 -0.34375 1.625 -0.542969 1.683594 -0.855469 C 1.796875 -1.683594 1.867188 -3.078125 1.867188 -5.074219 C 1.867188 -5.660156 1.851562 -6 1.824219 -6.113281 C 1.78125 -6.257812 1.726562 -6.34375 1.667969 -6.371094 C 1.609375 -6.398438 1.453125 -6.429688 1.210938 -6.457031 L 1.054688 -6.457031 C 0.769531 -6.457031 0.613281 -6.414062 0.585938 -6.34375 Z M 0.667969 -8.980469 C 0.597656 -8.9375 0.570312 -8.75 0.570312 -8.421875 L 0.570312 -8.222656 C 0.570312 -7.96875 0.585938 -7.796875 0.597656 -7.710938 C 0.597656 -7.597656 0.785156 -7.539062 1.140625 -7.527344 L 1.28125 -7.527344 C 1.324219 -7.511719 1.355469 -7.511719 1.382812 -7.511719 C 1.582031 -7.511719 1.726562 -7.582031 1.808594 -7.726562 C 1.851562 -7.839844 1.882812 -7.980469 1.882812 -8.152344 C 1.882812 -8.582031 1.808594 -8.867188 1.683594 -8.980469 C 1.597656 -9.035156 1.425781 -9.066406 1.167969 -9.066406 C 0.914062 -9.066406 0.753906 -9.035156 0.667969 -8.980469 Z M 0.667969 -8.980469 "/></g></g></g><g fill="rgb(100%, 100%, 100%)" fill-opacity="1"><g transform="translate(54.842308, 39.714735)"><g><path d="M 3.59375 -5.6875 C 3.847656 -5.574219 4.078125 -5.359375 4.277344 -5.046875 C 4.390625 -4.847656 4.476562 -4.675781 4.519531 -4.53125 C 4.5625 -4.390625 4.589844 -4.160156 4.589844 -3.875 C 4.589844 -2.765625 4.390625 -2.050781 3.992188 -1.726562 C 3.59375 -1.382812 3.105469 -1.210938 2.566406 -1.210938 C 2.222656 -1.210938 1.953125 -1.28125 1.78125 -1.453125 C 1.652344 -1.566406 1.597656 -1.839844 1.597656 -2.238281 C 1.597656 -2.496094 1.652344 -2.992188 1.765625 -3.707031 C 1.882812 -4.417969 1.980469 -4.816406 2.050781 -4.929688 C 2.082031 -4.972656 2.265625 -5.144531 2.621094 -5.429688 C 2.964844 -5.714844 3.164062 -5.859375 3.191406 -5.859375 C 3.191406 -5.859375 3.335938 -5.800781 3.59375 -5.6875 Z M 1.667969 -6.542969 C 1.324219 -6.257812 1.082031 -5.957031 0.925781 -5.660156 C 0.753906 -5.34375 0.597656 -4.859375 0.457031 -4.191406 C 0.300781 -3.550781 0.226562 -2.980469 0.226562 -2.464844 C 0.226562 -2.125 0.269531 -1.78125 0.355469 -1.453125 C 0.457031 -1.027344 0.742188 -0.667969 1.210938 -0.386719 C 1.667969 -0.0859375 2.195312 0.0585938 2.78125 0.0585938 C 3.621094 0.0585938 4.347656 -0.226562 4.945312 -0.796875 C 5.175781 -1.027344 5.34375 -1.210938 5.445312 -1.382812 C 5.542969 -1.554688 5.644531 -1.796875 5.742188 -2.109375 C 5.914062 -2.652344 6 -3.191406 6 -3.734375 C 6 -4.320312 5.902344 -4.789062 5.730469 -5.160156 C 5.160156 -6.371094 4.21875 -6.984375 2.894531 -6.984375 C 2.566406 -6.984375 2.351562 -6.957031 2.238281 -6.925781 C 2.109375 -6.871094 1.925781 -6.742188 1.667969 -6.542969 Z M 1.667969 -6.542969 "/></g></g></g><g fill="rgb(100%, 100%, 100%)" fill-opacity="1"><g transform="translate(61.097953, 39.714735)"><g><path d="M 4.488281 -6.785156 C 4.191406 -6.613281 3.863281 -6.3125 3.519531 -5.871094 C 3.164062 -5.429688 2.835938 -4.902344 2.523438 -4.304688 C 2.324219 -3.90625 2.195312 -3.648438 2.136719 -3.519531 C 2.09375 -3.792969 2.066406 -4.003906 2.050781 -4.148438 C 1.851562 -5.671875 1.726562 -6.484375 1.667969 -6.585938 C 1.597656 -6.671875 1.324219 -6.726562 0.839844 -6.726562 C 0.628906 -6.726562 0.5 -6.699219 0.46875 -6.671875 C 0.425781 -6.628906 0.371094 -6.398438 0.3125 -6 C 0.257812 -5.703125 0.226562 -5.386719 0.226562 -5.046875 C 0.226562 -4.390625 0.285156 -3.664062 0.425781 -2.894531 C 0.554688 -2.125 0.726562 -1.480469 0.941406 -0.96875 C 1.15625 -0.398438 1.296875 -0.0429688 1.367188 0.0703125 C 1.425781 0.183594 1.511719 0.242188 1.625 0.242188 C 1.652344 0.242188 1.695312 0.242188 1.753906 0.226562 C 1.808594 0.214844 1.867188 0.199219 1.894531 0.199219 C 2.195312 0.140625 2.351562 0.113281 2.367188 0.101562 C 2.394531 0.0703125 2.464844 -0.199219 2.609375 -0.742188 C 2.765625 -1.339844 3.148438 -2.28125 3.761719 -3.5625 C 4.375 -4.832031 4.804688 -5.558594 5.03125 -5.757812 C 5.132812 -5.84375 5.230469 -5.859375 5.34375 -5.816406 C 5.402344 -5.785156 5.445312 -5.703125 5.460938 -5.558594 C 5.472656 -5.417969 5.488281 -5.101562 5.488281 -4.648438 C 5.488281 -3.90625 5.53125 -3.023438 5.644531 -1.96875 C 5.757812 -0.941406 5.816406 -0.355469 5.816406 -0.226562 C 5.816406 -0.15625 5.828125 -0.113281 5.871094 -0.101562 C 5.902344 -0.0703125 5.988281 -0.0585938 6.101562 -0.0585938 C 6.113281 -0.0585938 6.15625 -0.0585938 6.214844 -0.0703125 L 6.34375 -0.0703125 C 6.613281 -0.0859375 6.796875 -0.101562 6.882812 -0.101562 C 6.914062 -0.542969 6.941406 -0.871094 6.96875 -1.097656 C 7.011719 -1.480469 7.042969 -1.980469 7.042969 -2.59375 C 7.042969 -4.203125 6.941406 -5.332031 6.742188 -5.972656 C 6.613281 -6.386719 6.484375 -6.65625 6.34375 -6.796875 C 6.214844 -6.898438 5.957031 -6.96875 5.585938 -7.027344 C 5.386719 -7.042969 5.273438 -7.054688 5.246094 -7.054688 C 5.046875 -7.054688 4.804688 -6.957031 4.488281 -6.785156 Z M 4.488281 -6.785156 "/></g></g></g><g fill="rgb(100%, 100%, 100%)" fill-opacity="1"><g transform="translate(68.379581, 39.714735)"><g><path d="M 3.148438 -8.039062 C 2.894531 -7.96875 2.664062 -7.867188 2.464844 -7.726562 C 2.265625 -7.570312 1.9375 -7.269531 1.480469 -6.828125 C 1.082031 -6.429688 0.839844 -6.15625 0.726562 -6 C 0.613281 -5.828125 0.5 -5.574219 0.414062 -5.246094 C 0.285156 -4.847656 0.226562 -4.546875 0.226562 -4.320312 C 0.226562 -4.003906 0.34375 -3.804688 0.597656 -3.71875 C 0.839844 -3.605469 1.269531 -3.550781 1.894531 -3.550781 C 2.636719 -3.519531 3.007812 -3.492188 3.007812 -3.464844 C 3.007812 -3.335938 2.820312 -3.050781 2.480469 -2.609375 C 2.109375 -2.152344 1.824219 -1.851562 1.597656 -1.695312 C 1.226562 -1.410156 0.996094 -1.199219 0.882812 -1.039062 C 0.8125 -0.925781 0.785156 -0.855469 0.785156 -0.828125 C 0.785156 -0.753906 0.898438 -0.628906 1.140625 -0.425781 C 1.425781 -0.171875 1.609375 -0.0585938 1.710938 -0.0585938 C 1.808594 -0.0585938 2.152344 -0.300781 2.722656 -0.8125 C 3.066406 -1.125 3.320312 -1.367188 3.476562 -1.566406 C 3.621094 -1.753906 3.777344 -2.007812 3.933594 -2.335938 C 4.160156 -2.820312 4.277344 -3.25 4.277344 -3.621094 L 4.277344 -3.761719 C 4.277344 -4.078125 4.246094 -4.277344 4.21875 -4.375 C 4.191406 -4.460938 4.089844 -4.589844 3.933594 -4.730469 C 3.792969 -4.847656 3.664062 -4.929688 3.550781 -4.972656 C 3.421875 -5.003906 3.207031 -5.03125 2.90625 -5.03125 L 2.636719 -5.03125 C 2.496094 -5.015625 2.394531 -5.015625 2.308594 -5.015625 L 2.136719 -5.015625 C 1.882812 -5.015625 1.765625 -5.058594 1.765625 -5.144531 C 1.765625 -5.230469 1.96875 -5.5 2.378906 -5.929688 C 2.78125 -6.355469 3.023438 -6.585938 3.105469 -6.585938 C 3.191406 -6.585938 3.277344 -6.34375 3.335938 -5.859375 C 3.363281 -5.714844 3.40625 -5.644531 3.464844 -5.628906 C 3.519531 -5.601562 3.691406 -5.585938 3.992188 -5.585938 L 4.617188 -5.585938 C 4.617188 -5.957031 4.632812 -6.230469 4.648438 -6.429688 L 4.648438 -6.65625 C 4.648438 -6.742188 4.660156 -6.8125 4.660156 -6.855469 C 4.660156 -7.367188 4.546875 -7.726562 4.347656 -7.925781 C 4.21875 -8.039062 4.019531 -8.109375 3.75 -8.109375 C 3.550781 -8.109375 3.347656 -8.082031 3.148438 -8.039062 Z M 3.148438 -8.039062 "/></g></g></g><g fill="rgb(100%, 100%, 100%)" fill-opacity="1"><g transform="translate(11.964777, 52.765274)"><g><path d="M 1.382812 -9.605469 C 0.925781 -9.578125 0.613281 -9.476562 0.441406 -9.308594 C 0.300781 -9.164062 0.226562 -9.066406 0.226562 -8.992188 C 0.226562 -8.9375 0.257812 -8.824219 0.328125 -8.652344 C 0.386719 -8.480469 0.414062 -8.109375 0.414062 -7.570312 C 0.414062 -6.984375 0.386719 -6.230469 0.355469 -5.300781 C 0.269531 -3.105469 0.242188 -1.78125 0.242188 -1.296875 C 0.242188 -0.640625 0.269531 -0.285156 0.328125 -0.199219 C 0.355469 -0.113281 0.640625 -0.0859375 1.167969 -0.0859375 L 1.96875 -0.0859375 C 1.9375 -0.796875 1.925781 -1.269531 1.925781 -1.511719 L 1.925781 -1.953125 C 1.925781 -2.664062 1.9375 -3.308594 1.980469 -3.847656 C 2.023438 -4.289062 2.050781 -4.589844 2.066406 -4.746094 C 2.59375 -4.789062 2.992188 -4.832031 3.265625 -4.859375 C 4.0625 -4.917969 4.476562 -4.972656 4.519531 -5.015625 C 4.519531 -5.015625 4.53125 -5.046875 4.53125 -5.074219 C 4.53125 -5.1875 4.503906 -5.34375 4.445312 -5.542969 C 4.390625 -5.773438 4.320312 -5.914062 4.246094 -5.972656 C 4.132812 -6.042969 3.648438 -6.113281 2.792969 -6.1875 C 2.324219 -6.214844 2.082031 -6.242188 2.082031 -6.257812 C 2.039062 -6.640625 2.007812 -6.941406 1.996094 -7.140625 C 1.96875 -7.398438 1.953125 -7.582031 1.953125 -7.710938 C 1.953125 -7.839844 1.980469 -7.9375 2.066406 -7.996094 C 2.167969 -8.054688 2.578125 -8.125 3.320312 -8.238281 C 3.820312 -8.296875 4.121094 -8.382812 4.234375 -8.464844 C 4.347656 -8.550781 4.433594 -8.78125 4.519531 -9.179688 C 4.519531 -9.207031 4.53125 -9.25 4.53125 -9.308594 C 4.53125 -9.363281 4.503906 -9.421875 4.460938 -9.464844 C 4.402344 -9.492188 4.320312 -9.519531 4.175781 -9.5625 C 3.949219 -9.621094 3.5625 -9.648438 2.992188 -9.648438 C 2.566406 -9.648438 2.039062 -9.636719 1.382812 -9.605469 Z M 1.382812 -9.605469 "/></g></g></g><g fill="rgb(100%, 100%, 100%)" fill-opacity="1"><g transform="translate(16.766947, 52.765274)"><g><path d="M 3.664062 -6.3125 C 3.691406 -6.144531 3.71875 -5.914062 3.71875 -5.628906 C 3.71875 -5.429688 3.691406 -5.289062 3.648438 -5.203125 C 3.59375 -5.117188 3.464844 -4.988281 3.234375 -4.832031 C 2.894531 -4.574219 2.566406 -4.460938 2.253906 -4.460938 C 2.050781 -4.460938 1.925781 -4.460938 1.867188 -4.488281 C 1.796875 -4.503906 1.765625 -4.5625 1.765625 -4.660156 C 1.765625 -4.773438 1.808594 -4.960938 1.910156 -5.230469 C 2.007812 -5.558594 2.222656 -5.859375 2.535156 -6.144531 C 2.851562 -6.414062 3.121094 -6.554688 3.363281 -6.554688 C 3.519531 -6.554688 3.621094 -6.472656 3.664062 -6.3125 Z M 2.265625 -7.570312 C 1.539062 -7.140625 1.027344 -6.585938 0.726562 -5.902344 C 0.414062 -5.203125 0.242188 -4.261719 0.242188 -3.09375 C 0.242188 -2.4375 0.226562 -2.007812 0.226562 -1.796875 C 0.425781 -1.523438 0.585938 -1.324219 0.683594 -1.199219 C 0.855469 -0.953125 1.027344 -0.769531 1.183594 -0.65625 C 1.324219 -0.527344 1.566406 -0.386719 1.882812 -0.242188 C 2.652344 0.113281 3.25 0.285156 3.691406 0.285156 C 3.875 0.285156 4.035156 0.257812 4.160156 0.199219 C 4.304688 0.140625 4.519531 -0.015625 4.789062 -0.257812 C 5.046875 -0.484375 5.1875 -0.640625 5.1875 -0.710938 C 5.1875 -0.742188 5.058594 -0.882812 4.816406 -1.15625 C 4.605469 -1.382812 4.460938 -1.496094 4.402344 -1.496094 C 4.375 -1.496094 4.289062 -1.453125 4.175781 -1.382812 C 4.003906 -1.28125 3.777344 -1.238281 3.476562 -1.238281 C 3.121094 -1.238281 2.765625 -1.296875 2.421875 -1.410156 C 2.066406 -1.523438 1.851562 -1.667969 1.765625 -1.839844 C 1.710938 -1.894531 1.667969 -2.136719 1.609375 -2.535156 C 1.566406 -2.808594 1.539062 -2.992188 1.539062 -3.078125 C 1.851562 -3.105469 2.09375 -3.121094 2.265625 -3.136719 C 2.835938 -3.164062 3.378906 -3.320312 3.890625 -3.605469 C 4.390625 -3.875 4.730469 -4.203125 4.929688 -4.589844 C 5.015625 -4.773438 5.074219 -5.160156 5.074219 -5.757812 C 5.074219 -6.527344 4.945312 -7.054688 4.703125 -7.355469 C 4.445312 -7.640625 3.992188 -7.796875 3.335938 -7.796875 C 2.863281 -7.796875 2.507812 -7.710938 2.265625 -7.570312 Z M 2.621094 -9.179688 C 2.335938 -8.878906 2.136719 -8.679688 2.039062 -8.59375 C 2.179688 -8.453125 2.265625 -8.367188 2.324219 -8.339844 C 2.453125 -8.195312 2.535156 -8.097656 2.578125 -8.054688 L 3.050781 -8.308594 C 3.363281 -8.464844 3.605469 -8.679688 3.792969 -8.964844 C 3.933594 -9.164062 4.035156 -9.308594 4.089844 -9.378906 C 3.976562 -9.464844 3.890625 -9.519531 3.835938 -9.578125 C 3.691406 -9.691406 3.5625 -9.75 3.449219 -9.75 C 3.265625 -9.75 2.992188 -9.550781 2.621094 -9.179688 Z M 2.621094 -9.179688 "/></g></g></g><g fill="rgb(100%, 100%, 100%)" fill-opacity="1"><g transform="translate(22.210356, 52.765274)"><g><path d="M 3.605469 -7.027344 C 3.179688 -6.8125 2.78125 -6.269531 2.410156 -5.386719 C 2.238281 -4.988281 2.125 -4.789062 2.050781 -4.789062 L 2.039062 -4.789062 C 1.996094 -4.816406 1.9375 -5.132812 1.851562 -5.730469 C 1.753906 -6.386719 1.667969 -6.785156 1.582031 -6.914062 C 1.496094 -7.027344 1.28125 -7.097656 0.96875 -7.097656 L 0.398438 -7.097656 C 0.355469 -6.925781 0.328125 -6.796875 0.328125 -6.714844 C 0.257812 -6.429688 0.226562 -6.042969 0.226562 -5.542969 C 0.226562 -4.632812 0.300781 -3.605469 0.457031 -2.480469 C 0.597656 -1.339844 0.769531 -0.585938 0.96875 -0.183594 C 1.054688 0.015625 1.183594 0.15625 1.367188 0.269531 C 1.539062 0.398438 1.726562 0.457031 1.894531 0.457031 C 2.039062 0.457031 2.152344 0.414062 2.253906 0.3125 C 2.335938 0.199219 2.410156 -0.113281 2.464844 -0.597656 C 2.523438 -1.113281 2.738281 -1.910156 3.136719 -2.992188 C 3.433594 -3.804688 3.632812 -4.347656 3.75 -4.632812 C 3.777344 -3.691406 3.804688 -2.980469 3.820312 -2.523438 C 3.847656 -1.113281 3.90625 -0.3125 3.960938 -0.140625 C 3.992188 -0.0273438 4.035156 0.0429688 4.105469 0.0859375 C 4.160156 0.140625 4.289062 0.183594 4.460938 0.226562 C 4.6875 0.300781 4.847656 0.328125 4.902344 0.328125 L 4.929688 0.328125 C 4.929688 0.328125 4.945312 0.3125 4.960938 0.3125 C 5.160156 0.183594 5.542969 -0.839844 6.113281 -2.75 C 6.671875 -4.589844 7 -5.515625 7.082031 -5.515625 C 7.082031 -5.515625 7.097656 -5.5 7.113281 -5.5 C 7.140625 -5.472656 7.15625 -4.804688 7.183594 -3.492188 C 7.183594 -2.253906 7.210938 -1.382812 7.269531 -0.898438 C 7.296875 -0.613281 7.328125 -0.386719 7.355469 -0.242188 C 7.46875 -0.242188 7.640625 -0.257812 7.882812 -0.285156 C 8.125 -0.300781 8.308594 -0.3125 8.421875 -0.3125 C 8.453125 -0.65625 8.464844 -0.914062 8.496094 -1.097656 C 8.523438 -1.398438 8.539062 -1.851562 8.539062 -2.464844 C 8.539062 -4.148438 8.480469 -5.214844 8.367188 -5.644531 C 8.265625 -6.042969 8.097656 -6.386719 7.855469 -6.65625 C 7.597656 -6.914062 7.3125 -7.082031 6.984375 -7.15625 C 6.882812 -7.167969 6.8125 -7.183594 6.785156 -7.183594 C 6.640625 -7.183594 6.484375 -7.082031 6.300781 -6.914062 C 6.070312 -6.699219 5.828125 -6.355469 5.574219 -5.871094 C 5.375 -5.488281 5.246094 -5.230469 5.1875 -5.101562 C 5.144531 -5.332031 5.117188 -5.488281 5.101562 -5.601562 C 5.046875 -5.914062 4.945312 -6.269531 4.789062 -6.65625 C 4.675781 -6.882812 4.589844 -7.042969 4.53125 -7.097656 C 4.460938 -7.15625 4.363281 -7.199219 4.246094 -7.199219 C 4.078125 -7.199219 3.863281 -7.140625 3.605469 -7.027344 Z M 3.605469 -7.027344 "/></g></g></g><g fill="rgb(100%, 100%, 100%)" fill-opacity="1"><g transform="translate(31.002458, 52.765274)"><g><path d="M 0.585938 -6.34375 C 0.46875 -6.199219 0.386719 -5.828125 0.328125 -5.203125 C 0.242188 -4.574219 0.214844 -3.875 0.214844 -3.105469 C 0.214844 -2.335938 0.257812 -1.640625 0.34375 -1.027344 C 0.398438 -0.570312 0.457031 -0.285156 0.5 -0.140625 C 0.542969 0 0.628906 0.0703125 0.753906 0.0703125 C 0.8125 0.0703125 0.984375 0.0273438 1.253906 -0.0585938 C 1.398438 -0.101562 1.480469 -0.171875 1.539062 -0.257812 C 1.582031 -0.34375 1.625 -0.542969 1.683594 -0.855469 C 1.796875 -1.683594 1.867188 -3.078125 1.867188 -5.074219 C 1.867188 -5.660156 1.851562 -6 1.824219 -6.113281 C 1.78125 -6.257812 1.726562 -6.34375 1.667969 -6.371094 C 1.609375 -6.398438 1.453125 -6.429688 1.210938 -6.457031 L 1.054688 -6.457031 C 0.769531 -6.457031 0.613281 -6.414062 0.585938 -6.34375 Z M 0.667969 -8.980469 C 0.597656 -8.9375 0.570312 -8.75 0.570312 -8.421875 L 0.570312 -8.222656 C 0.570312 -7.96875 0.585938 -7.796875 0.597656 -7.710938 C 0.597656 -7.597656 0.785156 -7.539062 1.140625 -7.527344 L 1.28125 -7.527344 C 1.324219 -7.511719 1.355469 -7.511719 1.382812 -7.511719 C 1.582031 -7.511719 1.726562 -7.582031 1.808594 -7.726562 C 1.851562 -7.839844 1.882812 -7.980469 1.882812 -8.152344 C 1.882812 -8.582031 1.808594 -8.867188 1.683594 -8.980469 C 1.597656 -9.035156 1.425781 -9.066406 1.167969 -9.066406 C 0.914062 -9.066406 0.753906 -9.035156 0.667969 -8.980469 Z M 0.667969 -8.980469 "/></g></g></g><g fill="rgb(100%, 100%, 100%)" fill-opacity="1"><g transform="translate(33.154172, 52.765274)"><g><path d="M 4.488281 -6.785156 C 4.191406 -6.613281 3.863281 -6.3125 3.519531 -5.871094 C 3.164062 -5.429688 2.835938 -4.902344 2.523438 -4.304688 C 2.324219 -3.90625 2.195312 -3.648438 2.136719 -3.519531 C 2.09375 -3.792969 2.066406 -4.003906 2.050781 -4.148438 C 1.851562 -5.671875 1.726562 -6.484375 1.667969 -6.585938 C 1.597656 -6.671875 1.324219 -6.726562 0.839844 -6.726562 C 0.628906 -6.726562 0.5 -6.699219 0.46875 -6.671875 C 0.425781 -6.628906 0.371094 -6.398438 0.3125 -6 C 0.257812 -5.703125 0.226562 -5.386719 0.226562 -5.046875 C 0.226562 -4.390625 0.285156 -3.664062 0.425781 -2.894531 C 0.554688 -2.125 0.726562 -1.480469 0.941406 -0.96875 C 1.15625 -0.398438 1.296875 -0.0429688 1.367188 0.0703125 C 1.425781 0.183594 1.511719 0.242188 1.625 0.242188 C 1.652344 0.242188 1.695312 0.242188 1.753906 0.226562 C 1.808594 0.214844 1.867188 0.199219 1.894531 0.199219 C 2.195312 0.140625 2.351562 0.113281 2.367188 0.101562 C 2.394531 0.0703125 2.464844 -0.199219 2.609375 -0.742188 C 2.765625 -1.339844 3.148438 -2.28125 3.761719 -3.5625 C 4.375 -4.832031 4.804688 -5.558594 5.03125 -5.757812 C 5.132812 -5.84375 5.230469 -5.859375 5.34375 -5.816406 C 5.402344 -5.785156 5.445312 -5.703125 5.460938 -5.558594 C 5.472656 -5.417969 5.488281 -5.101562 5.488281 -4.648438 C 5.488281 -3.90625 5.53125 -3.023438 5.644531 -1.96875 C 5.757812 -0.941406 5.816406 -0.355469 5.816406 -0.226562 C 5.816406 -0.15625 5.828125 -0.113281 5.871094 -0.101562 C 5.902344 -0.0703125 5.988281 -0.0585938 6.101562 -0.0585938 C 6.113281 -0.0585938 6.15625 -0.0585938 6.214844 -0.0703125 L 6.34375 -0.0703125 C 6.613281 -0.0859375 6.796875 -0.101562 6.882812 -0.101562 C 6.914062 -0.542969 6.941406 -0.871094 6.96875 -1.097656 C 7.011719 -1.480469 7.042969 -1.980469 7.042969 -2.59375 C 7.042969 -4.203125 6.941406 -5.332031 6.742188 -5.972656 C 6.613281 -6.386719 6.484375 -6.65625 6.34375 -6.796875 C 6.214844 -6.898438 5.957031 -6.96875 5.585938 -7.027344 C 5.386719 -7.042969 5.273438 -7.054688 5.246094 -7.054688 C 5.046875 -7.054688 4.804688 -6.957031 4.488281 -6.785156 Z M 4.488281 -6.785156 "/></g></g></g><g fill="rgb(100%, 100%, 100%)" fill-opacity="1"><g transform="translate(40.4358, 52.765274)"><g><path d="M 0.585938 -6.34375 C 0.46875 -6.199219 0.386719 -5.828125 0.328125 -5.203125 C 0.242188 -4.574219 0.214844 -3.875 0.214844 -3.105469 C 0.214844 -2.335938 0.257812 -1.640625 0.34375 -1.027344 C 0.398438 -0.570312 0.457031 -0.285156 0.5 -0.140625 C 0.542969 0 0.628906 0.0703125 0.753906 0.0703125 C 0.8125 0.0703125 0.984375 0.0273438 1.253906 -0.0585938 C 1.398438 -0.101562 1.480469 -0.171875 1.539062 -0.257812 C 1.582031 -0.34375 1.625 -0.542969 1.683594 -0.855469 C 1.796875 -1.683594 1.867188 -3.078125 1.867188 -5.074219 C 1.867188 -5.660156 1.851562 -6 1.824219 -6.113281 C 1.78125 -6.257812 1.726562 -6.34375 1.667969 -6.371094 C 1.609375 -6.398438 1.453125 -6.429688 1.210938 -6.457031 L 1.054688 -6.457031 C 0.769531 -6.457031 0.613281 -6.414062 0.585938 -6.34375 Z M 0.667969 -8.980469 C 0.597656 -8.9375 0.570312 -8.75 0.570312 -8.421875 L 0.570312 -8.222656 C 0.570312 -7.96875 0.585938 -7.796875 0.597656 -7.710938 C 0.597656 -7.597656 0.785156 -7.539062 1.140625 -7.527344 L 1.28125 -7.527344 C 1.324219 -7.511719 1.355469 -7.511719 1.382812 -7.511719 C 1.582031 -7.511719 1.726562 -7.582031 1.808594 -7.726562 C 1.851562 -7.839844 1.882812 -7.980469 1.882812 -8.152344 C 1.882812 -8.582031 1.808594 -8.867188 1.683594 -8.980469 C 1.597656 -9.035156 1.425781 -9.066406 1.167969 -9.066406 C 0.914062 -9.066406 0.753906 -9.035156 0.667969 -8.980469 Z M 0.667969 -8.980469 "/></g></g></g><g fill="rgb(100%, 100%, 100%)" fill-opacity="1"><g transform="translate(42.587514, 52.765274)"><g><path d="M 3.148438 -8.039062 C 2.894531 -7.96875 2.664062 -7.867188 2.464844 -7.726562 C 2.265625 -7.570312 1.9375 -7.269531 1.480469 -6.828125 C 1.082031 -6.429688 0.839844 -6.15625 0.726562 -6 C 0.613281 -5.828125 0.5 -5.574219 0.414062 -5.246094 C 0.285156 -4.847656 0.226562 -4.546875 0.226562 -4.320312 C 0.226562 -4.003906 0.34375 -3.804688 0.597656 -3.71875 C 0.839844 -3.605469 1.269531 -3.550781 1.894531 -3.550781 C 2.636719 -3.519531 3.007812 -3.492188 3.007812 -3.464844 C 3.007812 -3.335938 2.820312 -3.050781 2.480469 -2.609375 C 2.109375 -2.152344 1.824219 -1.851562 1.597656 -1.695312 C 1.226562 -1.410156 0.996094 -1.199219 0.882812 -1.039062 C 0.8125 -0.925781 0.785156 -0.855469 0.785156 -0.828125 C 0.785156 -0.753906 0.898438 -0.628906 1.140625 -0.425781 C 1.425781 -0.171875 1.609375 -0.0585938 1.710938 -0.0585938 C 1.808594 -0.0585938 2.152344 -0.300781 2.722656 -0.8125 C 3.066406 -1.125 3.320312 -1.367188 3.476562 -1.566406 C 3.621094 -1.753906 3.777344 -2.007812 3.933594 -2.335938 C 4.160156 -2.820312 4.277344 -3.25 4.277344 -3.621094 L 4.277344 -3.761719 C 4.277344 -4.078125 4.246094 -4.277344 4.21875 -4.375 C 4.191406 -4.460938 4.089844 -4.589844 3.933594 -4.730469 C 3.792969 -4.847656 3.664062 -4.929688 3.550781 -4.972656 C 3.421875 -5.003906 3.207031 -5.03125 2.90625 -5.03125 L 2.636719 -5.03125 C 2.496094 -5.015625 2.394531 -5.015625 2.308594 -5.015625 L 2.136719 -5.015625 C 1.882812 -5.015625 1.765625 -5.058594 1.765625 -5.144531 C 1.765625 -5.230469 1.96875 -5.5 2.378906 -5.929688 C 2.78125 -6.355469 3.023438 -6.585938 3.105469 -6.585938 C 3.191406 -6.585938 3.277344 -6.34375 3.335938 -5.859375 C 3.363281 -5.714844 3.40625 -5.644531 3.464844 -5.628906 C 3.519531 -5.601562 3.691406 -5.585938 3.992188 -5.585938 L 4.617188 -5.585938 C 4.617188 -5.957031 4.632812 -6.230469 4.648438 -6.429688 L 4.648438 -6.65625 C 4.648438 -6.742188 4.660156 -6.8125 4.660156 -6.855469 C 4.660156 -7.367188 4.546875 -7.726562 4.347656 -7.925781 C 4.21875 -8.039062 4.019531 -8.109375 3.75 -8.109375 C 3.550781 -8.109375 3.347656 -8.082031 3.148438 -8.039062 Z M 3.148438 -8.039062 "/></g></g></g><g fill="rgb(100%, 100%, 100%)" fill-opacity="1"><g transform="translate(47.503681, 52.765274)"><g><path d="M 1.726562 -9.820312 C 1.625 -9.605469 1.480469 -9.109375 1.3125 -8.308594 C 1.140625 -7.511719 1.054688 -7 1.054688 -6.796875 C 1.054688 -6.714844 1.027344 -6.640625 0.96875 -6.585938 C 0.898438 -6.527344 0.785156 -6.472656 0.628906 -6.414062 C 0.355469 -6.300781 0.226562 -6.171875 0.226562 -6.058594 C 0.226562 -5.988281 0.269531 -5.816406 0.386719 -5.542969 C 0.484375 -5.257812 0.597656 -5.117188 0.726562 -5.117188 C 0.796875 -5.117188 0.855469 -5.015625 0.882812 -4.816406 C 0.914062 -4.617188 0.953125 -4.105469 0.984375 -3.292969 C 1.011719 -2.039062 1.097656 -1.15625 1.238281 -0.667969 C 1.382812 -0.15625 1.480469 0.199219 1.539062 0.398438 C 1.566406 0.570312 1.625 0.65625 1.710938 0.65625 C 1.765625 0.65625 1.96875 0.597656 2.292969 0.457031 C 2.480469 0.386719 2.621094 0.3125 2.707031 0.226562 C 2.792969 0.15625 2.851562 0.0585938 2.90625 -0.0859375 C 3.105469 -0.710938 3.222656 -1.910156 3.222656 -3.648438 L 3.222656 -5.445312 L 3.519531 -5.488281 C 3.917969 -5.574219 4.203125 -5.644531 4.347656 -5.703125 C 4.488281 -5.773438 4.574219 -5.871094 4.574219 -6 C 4.574219 -6.113281 4.503906 -6.300781 4.390625 -6.542969 C 4.320312 -6.683594 4.261719 -6.769531 4.21875 -6.828125 C 4.175781 -6.855469 4.105469 -6.882812 4.019531 -6.882812 C 3.976562 -6.882812 3.863281 -6.871094 3.664062 -6.855469 C 3.390625 -6.828125 3.207031 -6.796875 3.121094 -6.796875 L 3.121094 -8.394531 C 3.121094 -9.4375 3.078125 -9.992188 3.023438 -10.046875 C 2.90625 -10.105469 2.695312 -10.148438 2.410156 -10.175781 C 2.136719 -10.207031 1.96875 -10.21875 1.882812 -10.234375 C 1.796875 -10.019531 1.753906 -9.878906 1.726562 -9.820312 Z M 1.726562 -9.820312 "/></g></g></g><g fill="rgb(100%, 100%, 100%)" fill-opacity="1"><g transform="translate(52.33435, 52.765274)"><g><path d="M 3.675781 -5.972656 C 3.707031 -5.6875 3.734375 -5.53125 3.734375 -5.5 C 3.734375 -5.359375 3.691406 -5.246094 3.632812 -5.160156 C 3.5625 -5.074219 3.421875 -4.960938 3.222656 -4.816406 C 2.9375 -4.605469 2.609375 -4.503906 2.238281 -4.503906 C 1.867188 -4.503906 1.695312 -4.519531 1.695312 -4.546875 C 1.695312 -4.605469 1.753906 -4.804688 1.894531 -5.160156 C 2.007812 -5.5 2.222656 -5.816406 2.523438 -6.113281 C 2.808594 -6.398438 3.066406 -6.554688 3.277344 -6.554688 L 3.320312 -6.554688 C 3.449219 -6.542969 3.535156 -6.5 3.5625 -6.441406 C 3.59375 -6.371094 3.632812 -6.214844 3.675781 -5.972656 Z M 2.335938 -7.609375 C 1.824219 -7.355469 1.398438 -6.957031 1.039062 -6.414062 C 0.683594 -5.84375 0.457031 -5.214844 0.34375 -4.503906 C 0.257812 -4.132812 0.226562 -3.691406 0.226562 -3.148438 C 0.226562 -2.378906 0.285156 -1.894531 0.414062 -1.683594 C 0.628906 -1.226562 1.027344 -0.8125 1.609375 -0.457031 C 2.179688 -0.0859375 2.78125 0.128906 3.421875 0.214844 C 3.59375 0.242188 3.691406 0.242188 3.75 0.242188 C 3.917969 0.242188 4.121094 0.183594 4.347656 0.0585938 C 4.589844 -0.0859375 4.789062 -0.257812 4.960938 -0.46875 C 5.074219 -0.597656 5.144531 -0.683594 5.203125 -0.742188 C 5.03125 -0.941406 4.902344 -1.082031 4.832031 -1.183594 C 4.617188 -1.425781 4.476562 -1.554688 4.417969 -1.554688 C 4.363281 -1.554688 4.304688 -1.511719 4.21875 -1.453125 C 4.078125 -1.355469 3.804688 -1.296875 3.433594 -1.28125 L 3.277344 -1.28125 C 2.738281 -1.28125 2.308594 -1.398438 2.023438 -1.640625 C 1.726562 -1.867188 1.582031 -2.195312 1.582031 -2.621094 L 1.582031 -3.121094 C 1.910156 -3.148438 2.167969 -3.164062 2.335938 -3.179688 C 2.808594 -3.207031 3.25 -3.320312 3.648438 -3.519531 C 4.191406 -3.792969 4.5625 -4.089844 4.773438 -4.433594 C 4.972656 -4.746094 5.089844 -5.214844 5.101562 -5.84375 C 5.101562 -6.671875 4.859375 -7.269531 4.390625 -7.609375 C 4.175781 -7.753906 3.863281 -7.839844 3.433594 -7.839844 C 3.007812 -7.839844 2.652344 -7.753906 2.335938 -7.609375 Z M 2.335938 -7.609375 "/></g></g></g><g fill="rgb(100%, 100%, 100%)" fill-opacity="1"><g transform="translate(57.792009, 52.765274)"><g><path d="M 3.148438 -8.039062 C 2.894531 -7.96875 2.664062 -7.867188 2.464844 -7.726562 C 2.265625 -7.570312 1.9375 -7.269531 1.480469 -6.828125 C 1.082031 -6.429688 0.839844 -6.15625 0.726562 -6 C 0.613281 -5.828125 0.5 -5.574219 0.414062 -5.246094 C 0.285156 -4.847656 0.226562 -4.546875 0.226562 -4.320312 C 0.226562 -4.003906 0.34375 -3.804688 0.597656 -3.71875 C 0.839844 -3.605469 1.269531 -3.550781 1.894531 -3.550781 C 2.636719 -3.519531 3.007812 -3.492188 3.007812 -3.464844 C 3.007812 -3.335938 2.820312 -3.050781 2.480469 -2.609375 C 2.109375 -2.152344 1.824219 -1.851562 1.597656 -1.695312 C 1.226562 -1.410156 0.996094 -1.199219 0.882812 -1.039062 C 0.8125 -0.925781 0.785156 -0.855469 0.785156 -0.828125 C 0.785156 -0.753906 0.898438 -0.628906 1.140625 -0.425781 C 1.425781 -0.171875 1.609375 -0.0585938 1.710938 -0.0585938 C 1.808594 -0.0585938 2.152344 -0.300781 2.722656 -0.8125 C 3.066406 -1.125 3.320312 -1.367188 3.476562 -1.566406 C 3.621094 -1.753906 3.777344 -2.007812 3.933594 -2.335938 C 4.160156 -2.820312 4.277344 -3.25 4.277344 -3.621094 L 4.277344 -3.761719 C 4.277344 -4.078125 4.246094 -4.277344 4.21875 -4.375 C 4.191406 -4.460938 4.089844 -4.589844 3.933594 -4.730469 C 3.792969 -4.847656 3.664062 -4.929688 3.550781 -4.972656 C 3.421875 -5.003906 3.207031 -5.03125 2.90625 -5.03125 L 2.636719 -5.03125 C 2.496094 -5.015625 2.394531 -5.015625 2.308594 -5.015625 L 2.136719 -5.015625 C 1.882812 -5.015625 1.765625 -5.058594 1.765625 -5.144531 C 1.765625 -5.230469 1.96875 -5.5 2.378906 -5.929688 C 2.78125 -6.355469 3.023438 -6.585938 3.105469 -6.585938 C 3.191406 -6.585938 3.277344 -6.34375 3.335938 -5.859375 C 3.363281 -5.714844 3.40625 -5.644531 3.464844 -5.628906 C 3.519531 -5.601562 3.691406 -5.585938 3.992188 -5.585938 L 4.617188 -5.585938 C 4.617188 -5.957031 4.632812 -6.230469 4.648438 -6.429688 L 4.648438 -6.65625 C 4.648438 -6.742188 4.660156 -6.8125 4.660156 -6.855469 C 4.660156 -7.367188 4.546875 -7.726562 4.347656 -7.925781 C 4.21875 -8.039062 4.019531 -8.109375 3.75 -8.109375 C 3.550781 -8.109375 3.347656 -8.082031 3.148438 -8.039062 Z M 3.148438 -8.039062 "/></g></g></g></svg>