<svg xmlns="http://www.w3.org/2000/svg" xmlns:xlink="http://www.w3.org/1999/xlink" width="100" zoomAndPan="magnify" viewBox="0 0 75 74.999997" height="100" preserveAspectRatio="xMidYMid meet" version="1.0"><defs><clipPath id="id1"><path d="M 32 27 L 52 27 L 52 49.160156 L 32 49.160156 Z M 32 27 " clip-rule="nonzero"/></clipPath><clipPath id="id2"><path d="M 58 27 L 73.878906 27 L 73.878906 49.160156 L 58 49.160156 Z M 58 27 " clip-rule="nonzero"/></clipPath></defs><path stroke-linecap="butt" transform="matrix(0.280433, 0, 0, 0.281486, -44.215845, 23.674225)" fill-opacity="1" fill="rgb(100%, 100%, 100%)" fill-rule="nonzero" stroke-linejoin="miter" d="M 200.195946 28.800839 C 200.502391 29.300421 200.697402 29.800002 200.697402 30.396724 C 200.697402 30.799164 200.599896 31.298746 200.293451 31.701186 L 185.500499 62.994403 C 184.804033 64.493147 183.703615 65.298028 182.296753 65.298028 C 181.502781 65.298028 180.903819 65.103746 180.304858 64.798446 C 179.803402 64.396006 179.301946 63.896425 178.897995 62.994403 L 164.105044 31.701186 C 163.896104 31.298746 163.798598 30.896305 163.798598 30.396724 C 163.798598 29.106139 164.495065 28.204117 165.804422 27.496377 C 166.194444 27.302095 166.6959 27.093937 167.294861 27.093937 C 167.893822 27.093937 168.395278 27.302095 168.896734 27.593518 C 169.39819 27.898817 169.802141 28.301258 170.094657 28.89798 L 182.296753 55.098243 L 194.303838 28.89798 C 194.596354 28.301258 195.000304 27.898817 195.50176 27.593518 C 196.003216 27.302095 196.602178 27.093937 197.201139 27.093937 C 197.8001 27.093937 198.301556 27.204955 198.803012 27.496377 C 199.401974 27.995958 199.90343 28.398399 200.195946 28.800839 Z M 200.195946 28.800839 " stroke="rgb(100%, 100%, 100%)" stroke-width="1" stroke-opacity="1" stroke-miterlimit="10"/><path stroke-linecap="butt" transform="matrix(0.280433, 0, 0, 0.281486, -44.215845, 23.674225)" fill-opacity="1" fill="rgb(100%, 100%, 100%)" fill-rule="nonzero" stroke-linejoin="miter" d="M 213.595964 63.299702 C 210.698663 61.606677 208.400323 59.303052 206.700944 56.402705 C 205.099071 53.502358 204.193664 50.10243 204.193664 46.397202 C 204.193664 42.594834 205.001565 39.305924 206.700944 36.294559 C 208.302817 33.394212 210.601157 31.104464 213.595964 29.397561 C 216.493265 27.704536 219.905952 26.899655 223.597225 26.899655 C 227.302428 26.899655 230.60368 27.704536 233.500981 29.397561 C 236.398282 31.104464 238.696622 33.394212 240.396001 36.294559 C 242.095379 39.194905 242.903281 42.594834 242.903281 46.397202 C 242.903281 50.10243 242.095379 53.502358 240.396001 56.402705 C 238.794127 59.303052 236.495787 61.606677 233.598486 63.299702 C 230.701185 65.006605 227.399933 65.797609 223.597225 65.797609 C 219.905952 65.797609 216.6047 64.895587 213.595964 63.299702 Z M 230.102224 57.804308 C 231.996613 56.694128 233.500981 55.098243 234.503893 53.099918 C 235.506805 51.101593 236.105766 48.895109 236.105766 46.300062 C 236.105766 43.802155 235.60431 41.49853 234.503893 39.500205 C 233.500981 37.50188 231.996613 35.905995 230.102224 34.795815 C 228.193905 33.699511 226.104505 33.102789 223.69473 33.102789 C 221.298885 33.102789 219.195556 33.699511 217.301167 34.795815 C 215.406777 35.905995 213.902409 37.50188 212.899497 39.500205 C 211.79908 41.49853 211.297624 43.802155 211.297624 46.300062 C 211.297624 48.797968 211.79908 51.101593 212.899497 53.099918 C 213.999915 55.098243 215.504283 56.596987 217.301167 57.804308 C 219.09805 58.997753 221.298885 59.497334 223.69473 59.497334 C 225.99307 59.497334 228.193905 58.900612 230.102224 57.804308 Z M 230.102224 57.804308 " stroke="rgb(100%, 100%, 100%)" stroke-width="1" stroke-opacity="1" stroke-miterlimit="10"/><path fill="rgb(100%, 100%, 100%)" d="M 34.332031 41.265625 C 34.332031 41.492188 34.25 41.6875 34.082031 41.859375 C 33.914062 42.027344 33.714844 42.082031 33.4375 42.082031 C 33.128906 42.082031 32.875 41.972656 32.734375 41.773438 L 29.621094 38.03125 L 26.648438 41.773438 C 26.453125 41.972656 26.230469 42.082031 25.949219 42.082031 C 25.695312 42.082031 25.472656 42 25.332031 41.859375 C 25.191406 41.6875 25.105469 41.492188 25.105469 41.265625 C 25.105469 41.015625 25.191406 40.761719 25.386719 40.535156 L 28.417969 36.734375 L 25.191406 32.90625 C 24.996094 32.683594 24.910156 32.429688 24.910156 32.148438 C 24.910156 31.921875 24.996094 31.726562 25.136719 31.582031 C 25.277344 31.414062 25.5 31.359375 25.78125 31.359375 C 26.089844 31.359375 26.339844 31.472656 26.539062 31.695312 L 29.761719 35.554688 L 32.652344 31.695312 C 32.820312 31.472656 33.070312 31.359375 33.378906 31.359375 C 33.632812 31.359375 33.855469 31.441406 33.996094 31.613281 C 34.136719 31.78125 34.222656 31.976562 34.222656 32.203125 C 34.222656 32.484375 34.136719 32.765625 33.941406 32.992188 L 30.941406 36.847656 L 34.054688 40.589844 C 34.222656 40.789062 34.332031 41.015625 34.332031 41.265625 Z M 34.332031 41.265625 " fill-opacity="1" fill-rule="nonzero"/><path fill="rgb(100%, 100%, 100%)" d="M 44.988281 31.976562 C 45.832031 32.457031 46.476562 33.105469 46.953125 33.949219 C 47.429688 34.792969 47.652344 35.722656 47.652344 36.734375 C 47.652344 37.75 47.429688 38.675781 47.007812 39.523438 C 46.558594 40.367188 45.972656 41.015625 45.214844 41.492188 C 44.457031 41.972656 43.585938 42.195312 42.664062 42.195312 C 41.90625 42.195312 41.203125 42.027344 40.53125 41.71875 C 39.886719 41.40625 39.324219 40.957031 38.847656 40.394531 L 38.847656 45.714844 C 38.847656 46.023438 38.765625 46.25 38.566406 46.445312 C 38.371094 46.644531 38.148438 46.726562 37.839844 46.726562 C 37.558594 46.726562 37.304688 46.644531 37.109375 46.445312 C 36.914062 46.25 36.828125 46.023438 36.828125 45.714844 L 36.828125 36.734375 C 36.828125 35.722656 37.082031 34.792969 37.558594 33.949219 C 38.035156 33.105469 38.679688 32.457031 39.492188 31.976562 C 40.308594 31.5 41.230469 31.246094 42.242188 31.246094 C 43.25 31.246094 44.175781 31.5 44.988281 31.976562 Z M 44.007812 39.945312 C 44.542969 39.632812 44.960938 39.183594 45.269531 38.621094 C 45.578125 38.058594 45.71875 37.4375 45.71875 36.734375 C 45.71875 36.03125 45.578125 35.414062 45.269531 34.847656 C 44.960938 34.285156 44.542969 33.835938 44.007812 33.527344 C 43.476562 33.214844 42.886719 33.046875 42.242188 33.046875 C 41.597656 33.046875 41.007812 33.214844 40.476562 33.527344 C 39.941406 33.835938 39.523438 34.285156 39.242188 34.847656 C 38.933594 35.414062 38.792969 36.03125 38.792969 36.734375 C 38.792969 37.4375 38.933594 38.058594 39.242188 38.621094 C 39.550781 39.183594 39.96875 39.605469 40.476562 39.945312 C 41.007812 40.253906 41.597656 40.421875 42.242188 40.421875 C 42.886719 40.421875 43.476562 40.253906 44.007812 39.945312 Z M 44.007812 39.945312 " fill-opacity="1" fill-rule="nonzero"/><path fill="rgb(100%, 100%, 100%)" d="M 58.253906 31.976562 C 59.066406 32.457031 59.710938 33.105469 60.191406 33.949219 C 60.667969 34.792969 60.917969 35.722656 60.917969 36.734375 L 60.917969 41.125 C 60.917969 41.40625 60.835938 41.660156 60.636719 41.859375 C 60.441406 42.054688 60.21875 42.140625 59.910156 42.140625 C 59.601562 42.140625 59.375 42.054688 59.179688 41.859375 C 58.984375 41.660156 58.898438 41.4375 58.898438 41.125 L 58.898438 40.394531 C 58.449219 40.957031 57.890625 41.40625 57.21875 41.71875 C 56.570312 42.027344 55.84375 42.195312 55.085938 42.195312 C 54.132812 42.195312 53.289062 41.972656 52.535156 41.492188 C 51.777344 41.015625 51.160156 40.367188 50.738281 39.523438 C 50.289062 38.675781 50.09375 37.75 50.09375 36.734375 C 50.09375 35.722656 50.316406 34.792969 50.796875 33.949219 C 51.273438 33.105469 51.917969 32.457031 52.757812 31.976562 C 53.597656 31.5 54.496094 31.246094 55.507812 31.246094 C 56.515625 31.246094 57.414062 31.5 58.253906 31.976562 Z M 57.273438 39.945312 C 57.804688 39.632812 58.226562 39.183594 58.507812 38.621094 C 58.816406 38.058594 58.957031 37.4375 58.957031 36.734375 C 58.957031 36.03125 58.816406 35.414062 58.507812 34.847656 C 58.199219 34.285156 57.777344 33.835938 57.273438 33.527344 C 56.769531 33.214844 56.152344 33.046875 55.507812 33.046875 C 54.859375 33.046875 54.273438 33.214844 53.738281 33.527344 C 53.207031 33.835938 52.785156 34.285156 52.476562 34.847656 C 52.167969 35.414062 52.027344 36.03125 52.027344 36.734375 C 52.027344 37.4375 52.167969 38.058594 52.476562 38.621094 C 52.785156 39.183594 53.207031 39.605469 53.738281 39.945312 C 54.273438 40.253906 54.859375 40.421875 55.507812 40.421875 C 56.152344 40.421875 56.738281 40.253906 57.273438 39.945312 Z M 57.273438 39.945312 " fill-opacity="1" fill-rule="nonzero"/><path fill="rgb(100%, 100%, 100%)" d="M 72.695312 32.203125 C 72.695312 32.34375 72.667969 32.484375 72.585938 32.683594 L 66.582031 46.25 C 66.414062 46.644531 66.164062 46.867188 65.828125 46.867188 C 65.6875 46.867188 65.546875 46.839844 65.347656 46.757812 C 64.957031 46.585938 64.761719 46.332031 64.761719 45.996094 C 64.761719 45.828125 64.789062 45.6875 64.871094 45.515625 L 66.835938 41.070312 L 62.40625 32.652344 C 62.347656 32.542969 62.320312 32.398438 62.320312 32.230469 C 62.320312 32.0625 62.375 31.894531 62.488281 31.753906 C 62.601562 31.613281 62.742188 31.5 62.910156 31.414062 C 63.023438 31.359375 63.160156 31.332031 63.300781 31.332031 C 63.667969 31.332031 63.949219 31.527344 64.117188 31.894531 L 67.707031 39.070312 L 70.875 31.921875 C 71.042969 31.527344 71.292969 31.359375 71.632812 31.359375 C 71.800781 31.359375 71.96875 31.386719 72.109375 31.441406 C 72.5 31.582031 72.695312 31.835938 72.695312 32.203125 Z M 72.695312 32.203125 " fill-opacity="1" fill-rule="nonzero"/><path stroke-linecap="butt" transform="matrix(0.280433, 0, 0, 0.281486, -44.215845, 23.674225)" fill="none" stroke-linejoin="miter" d="M 280.0946 62.494822 C 280.0946 63.299702 279.802084 63.993565 279.203122 64.604165 C 278.604161 65.200887 277.893765 65.395168 276.904783 65.395168 C 275.804365 65.395168 274.898959 65.006605 274.397503 64.298865 L 263.295824 51.004452 L 252.695602 64.298865 C 251.999135 65.006605 251.205163 65.395168 250.202251 65.395168 C 249.296844 65.395168 248.502872 65.103746 248.001416 64.604165 C 247.499961 63.993565 247.193515 63.299702 247.193515 62.494822 C 247.193515 61.606677 247.499961 60.704655 248.196427 59.899774 L 259.00559 46.397202 L 247.499961 32.79749 C 246.803494 32.006486 246.497049 31.104464 246.497049 30.105301 C 246.497049 29.300421 246.803494 28.606558 247.30495 28.093099 C 247.806406 27.496377 248.600378 27.302095 249.60329 27.302095 C 250.703707 27.302095 251.595184 27.704536 252.30558 28.49554 L 263.79728 42.20627 L 274.104987 28.49554 C 274.703948 27.704536 275.595425 27.302095 276.695843 27.302095 C 277.601249 27.302095 278.395221 27.593518 278.896677 28.204117 C 279.398133 28.800839 279.704578 29.494702 279.704578 30.299583 C 279.704578 31.298746 279.398133 32.297908 278.701666 33.102789 L 268.003939 46.799643 L 279.105617 60.094056 C 279.704578 60.801796 280.0946 61.606677 280.0946 62.494822 Z M 280.0946 62.494822 " stroke="rgb(100%, 100%, 100%)" stroke-width="1" stroke-opacity="1" stroke-miterlimit="10"/><g clip-path="url(#id1)"><path stroke-linecap="butt" transform="matrix(0.280433, 0, 0, 0.281486, -44.215845, 23.674225)" fill="none" stroke-linejoin="miter" d="M 318.09382 29.494702 C 321.102556 31.201605 323.400896 33.50523 325.100275 36.502717 C 326.799653 39.500205 327.593625 42.802993 327.593625 46.397202 C 327.593625 50.005289 326.799653 53.2942 325.295285 56.305564 C 323.693412 59.303052 321.604012 61.606677 318.901722 63.299702 C 316.199431 65.006605 313.09319 65.797609 309.805867 65.797609 C 307.103577 65.797609 304.596297 65.200887 302.200451 64.104583 C 299.902111 62.994403 297.896287 61.398518 296.196909 59.400193 L 296.196909 78.301018 C 296.196909 79.397322 295.904393 80.202203 295.193997 80.896066 C 294.49753 81.603806 293.703558 81.895228 292.603141 81.895228 C 291.600229 81.895228 290.694822 81.603806 289.998356 80.896066 C 289.301889 80.202203 288.995444 79.397322 288.995444 78.301018 L 288.995444 46.397202 C 288.995444 42.802993 289.90085 39.500205 291.600229 36.502717 C 293.299607 33.50523 295.597947 31.201605 298.495249 29.494702 C 301.406479 27.801677 304.693802 26.899655 308.301499 26.899655 C 311.895267 26.899655 315.196519 27.801677 318.09382 29.494702 Z M 314.597558 57.804308 C 316.505876 56.694128 317.996315 55.098243 319.096732 53.099918 C 320.19715 51.101593 320.698606 48.895109 320.698606 46.397202 C 320.698606 43.899296 320.19715 41.706689 319.096732 39.694487 C 317.996315 37.696162 316.505876 36.100277 314.597558 35.003974 C 312.703168 33.893793 310.599839 33.297071 308.301499 33.297071 C 306.003159 33.297071 303.89983 33.893793 302.005441 35.003974 C 300.097122 36.100277 298.606683 37.696162 297.603771 39.694487 C 296.503354 41.706689 296.001898 43.899296 296.001898 46.397202 C 296.001898 48.895109 296.503354 51.101593 297.603771 53.099918 C 298.704189 55.098243 300.194627 56.596987 302.005441 57.804308 C 303.89983 58.900612 306.003159 59.497334 308.301499 59.497334 C 310.599839 59.497334 312.703168 58.900612 314.597558 57.804308 Z M 314.597558 57.804308 " stroke="rgb(100%, 100%, 100%)" stroke-width="1" stroke-opacity="1" stroke-miterlimit="10"/></g><path stroke-linecap="butt" transform="matrix(0.280433, 0, 0, 0.281486, -44.215845, 23.674225)" fill="none" stroke-linejoin="miter" d="M 365.397835 29.494702 C 368.295136 31.201605 370.593476 33.50523 372.306784 36.502717 C 374.006163 39.500205 374.89764 42.802993 374.89764 46.397202 L 374.89764 61.99524 C 374.89764 62.994403 374.605124 63.896425 373.894728 64.604165 C 373.198262 65.298028 372.40429 65.603327 371.303872 65.603327 C 370.203455 65.603327 369.395554 65.298028 368.699087 64.604165 C 368.00262 63.896425 367.696175 63.105421 367.696175 61.99524 L 367.696175 59.400193 C 366.094302 61.398518 364.102407 62.994403 361.706562 64.104583 C 359.394293 65.200887 356.803437 65.797609 354.101146 65.797609 C 350.702389 65.797609 347.693653 65.006605 345.005292 63.299702 C 342.303001 61.606677 340.102166 59.303052 338.597798 56.305564 C 336.995925 53.2942 336.299459 50.005289 336.299459 46.397202 C 336.299459 42.802993 337.09343 39.500205 338.806738 36.502717 C 340.506117 33.50523 342.804457 31.201605 345.799264 29.494702 C 348.79407 27.801677 351.997817 26.899655 355.605514 26.899655 C 359.199282 26.899655 362.403029 27.801677 365.397835 29.494702 Z M 361.901573 57.804308 C 363.795962 56.694128 365.30033 55.098243 366.303242 53.099918 C 367.403659 51.101593 367.905115 48.895109 367.905115 46.397202 C 367.905115 43.899296 367.403659 41.706689 366.303242 39.694487 C 365.202825 37.696162 363.698457 36.100277 361.901573 35.003974 C 360.104689 33.893793 357.903854 33.297071 355.605514 33.297071 C 353.293245 33.297071 351.203845 33.893793 349.295526 35.003974 C 347.401137 36.100277 345.896769 37.696162 344.796352 39.694487 C 343.695934 41.706689 343.194478 43.899296 343.194478 46.397202 C 343.194478 48.895109 343.695934 51.101593 344.796352 53.099918 C 345.896769 55.098243 347.401137 56.596987 349.295526 57.804308 C 351.203845 58.900612 353.293245 59.497334 355.605514 59.497334 C 357.903854 59.497334 359.993254 58.900612 361.901573 57.804308 Z M 361.901573 57.804308 " stroke="rgb(100%, 100%, 100%)" stroke-width="1" stroke-opacity="1" stroke-miterlimit="10"/><g clip-path="url(#id2)"><path stroke-linecap="butt" transform="matrix(0.280433, 0, 0, 0.281486, -44.215845, 23.674225)" fill="none" stroke-linejoin="miter" d="M 416.894579 30.299583 C 416.894579 30.799164 416.797074 31.298746 416.504558 32.006486 L 395.095173 80.202203 C 394.496212 81.603806 393.604735 82.394809 392.406812 82.394809 C 391.905356 82.394809 391.4039 82.297669 390.693504 82.006246 C 389.300571 81.395647 388.604104 80.493625 388.604104 79.300181 C 388.604104 78.703459 388.701609 78.203877 388.994125 77.593278 L 396.00058 61.800959 L 380.204716 31.895468 C 379.995776 31.506905 379.898271 30.993446 379.898271 30.396724 C 379.898271 29.800002 380.093282 29.20328 380.497232 28.703698 C 380.901183 28.204117 381.402639 27.801677 382.0016 27.496377 C 382.405551 27.302095 382.893077 27.204955 383.394533 27.204955 C 384.703891 27.204955 385.706803 27.898817 386.305764 29.20328 L 399.106821 54.695803 L 410.40351 29.300421 C 411.002472 27.898817 411.893949 27.302095 413.105801 27.302095 C 413.704762 27.302095 414.303723 27.399236 414.805179 27.593518 C 416.198113 28.093099 416.894579 28.995121 416.894579 30.299583 Z M 416.894579 30.299583 " stroke="rgb(100%, 100%, 100%)" stroke-width="1" stroke-opacity="1" stroke-miterlimit="10"/></g></svg>